<!DOCTYPE svg PUBLIC "-//W3C//DTD SVG 1.1//EN" "http://www.w3.org/Graphics/SVG/1.1/DTD/svg11.dtd">
<!-- Uploaded to: SVG Repo, www.svgrepo.com, Transformed by: SVG Repo Mixer Tools -->
<svg width="256px" height="256px" viewBox="-0.51 -0.51 18.02 18.02" version="1.1" xmlns="http://www.w3.org/2000/svg" xmlns:xlink="http://www.w3.org/1999/xlink" class="si-glyph si-glyph-delete" fill="#D84653" transform="rotate(0)">
<g id="SVGRepo_bgCarrier" stroke-width="0">
<rect x="-0.51" y="-0.51" width="18.02" height="18.02" rx="9.01" fill="#31A7B3" strokewidth="0"/>
</g>
<g id="SVGRepo_tracerCarrier" stroke-linecap="round" stroke-linejoin="round"/>
<g id="SVGRepo_iconCarrier"> <title>1227</title> <defs> </defs> <g stroke="none" stroke-width="1" fill="none" fill-rule="evenodd"> <path d="M12.566,8 L15.611,4.956 C16.031,4.535 16.031,3.853 15.611,3.434 L12.566,0.389 C12.146,-0.031 11.464,-0.031 11.043,0.389 L7.999,3.433 L4.955,0.389 C4.534,-0.031 3.852,-0.031 3.432,0.389 L0.388,3.434 C-0.034,3.854 -0.034,4.536 0.387,4.956 L3.431,8 L0.387,11.044 C-0.034,11.465 -0.034,12.147 0.388,12.567 L3.432,15.611 C3.852,16.032 4.534,16.032 4.955,15.611 L7.999,12.567 L11.043,15.611 C11.464,16.032 12.146,16.032 12.566,15.611 L15.611,12.567 C16.031,12.146 16.031,11.464 15.611,11.044 L12.566,8 L12.566,8 Z" fill="#D84653" class="si-glyph-fill"> </path> </g> </g>
</svg>