<svg width="520" height="420" viewBox="0 0 520 420" fill="none" xmlns="http://www.w3.org/2000/svg">
<path opacity="0.6" d="M219.02 416.963C219.02 416.963 316.954 424.36 349.607 414.232C382.259 404.105 406.777 372.939 386.269 380.451C363.675 388.723 391.834 385.428 353.501 389.08C315.168 392.733 262.837 389.587 253.424 396.904C244.011 404.22 204.18 407.964 219.02 416.963Z" fill="#E4EBEB"/>
<path opacity="0.6" d="M132.605 42.3013C132.605 42.3013 127.604 5.88139 167.631 2.87424C207.657 -0.132912 286.338 66.8309 314.647 64.1464C342.956 61.4618 376.368 107.226 417.04 78.5024C457.711 49.7789 483.865 105.624 468.588 159.903C453.31 214.181 425.658 213.801 426.787 238.25C427.916 262.699 435.244 284.625 393.997 315.768C352.749 346.911 217.9 318.291 192.368 317.703C166.836 317.116 122.593 346.07 89.1913 329.225C55.79 312.38 79.0983 175.987 91.5647 120.844C104.031 65.7018 132.605 42.3013 132.605 42.3013Z" fill="#E4EBEB"/>
<g opacity="0.41">
<path opacity="0.41" d="M353.222 219.205L353.626 216.797L351.701 215.945C351.69 215.536 351.656 215.128 351.598 214.723L353.28 213.571L352.393 211.267L350.492 211.497C350.257 211.093 349.991 210.708 349.697 210.345L350.757 208.329L348.913 206.727L347.07 207.995C346.627 207.719 346.16 207.484 345.676 207.292V205.16L343.291 204.63C343.291 204.63 342.668 205.783 342.288 206.601H342.115C341.793 206.601 341.482 206.601 341.159 206.601L340.007 204.769L337.703 205.529C337.703 205.529 337.772 206.681 337.829 207.557C337.336 207.798 336.866 208.084 336.424 208.409L334.419 207.396L332.817 209.251L333.97 210.944C333.736 211.314 333.528 211.699 333.347 212.096L331.043 212.235L330.628 214.643L332.437 215.461C332.437 215.714 332.437 215.968 332.437 216.221C332.425 216.444 332.425 216.667 332.437 216.889L330.479 218.284L331.389 220.588L333.313 220.334C333.521 220.773 333.76 221.196 334.027 221.602L333.025 223.906L334.972 225.392L336.516 224.171C337.001 224.516 337.518 224.813 338.06 225.058L338.359 227.363L340.79 227.628L341.436 225.876H342.035C342.381 225.88 342.728 225.861 343.072 225.819L344.604 227.685L346.816 226.66C346.816 226.66 346.632 225.611 346.482 224.793C346.968 224.544 347.431 224.251 347.865 223.918L349.985 224.885L351.483 222.961L350.238 221.337C350.62 220.728 350.933 220.079 351.171 219.401L353.222 219.205ZM335.318 216.164C335.318 214.826 335.714 213.518 336.457 212.406C337.201 211.294 338.257 210.427 339.493 209.915C340.728 209.403 342.088 209.269 343.4 209.53C344.712 209.791 345.917 210.435 346.863 211.381C347.809 212.327 348.453 213.532 348.714 214.844C348.975 216.156 348.841 217.516 348.329 218.752C347.817 219.988 346.95 221.044 345.838 221.787C344.726 222.53 343.418 222.927 342.081 222.927C340.287 222.927 338.567 222.214 337.299 220.946C336.03 219.678 335.318 217.957 335.318 216.164Z" fill="#66AFAB"/>
<path opacity="0.41" d="M341.781 236.084C337.703 236.087 333.717 234.879 330.325 232.615C326.934 230.351 324.29 227.132 322.728 223.365C321.167 219.599 320.758 215.453 321.553 211.454C322.348 207.454 324.311 203.78 327.194 200.897C330.078 198.014 333.752 196.05 337.751 195.255C341.751 194.46 345.896 194.87 349.663 196.431C353.43 197.993 356.649 200.636 358.913 204.028C361.177 207.419 362.384 211.406 362.382 215.484C362.373 220.944 360.199 226.179 356.338 230.04C352.476 233.902 347.242 236.075 341.781 236.084ZM341.781 195.908C337.907 195.908 334.12 197.057 330.899 199.209C327.678 201.362 325.168 204.421 323.685 208C322.203 211.579 321.815 215.517 322.571 219.316C323.326 223.116 325.192 226.606 327.931 229.345C330.67 232.084 334.16 233.95 337.96 234.706C341.759 235.461 345.698 235.073 349.277 233.591C352.856 232.109 355.915 229.598 358.067 226.377C360.219 223.156 361.368 219.369 361.368 215.495C361.368 210.3 359.304 205.318 355.631 201.645C351.958 197.972 346.976 195.908 341.781 195.908Z" fill="#66AFAB"/>
</g>
<g opacity="0.38">
<path opacity="0.38" d="M181.192 251.65L181.596 249.242L179.672 248.389C179.66 247.981 179.626 247.573 179.568 247.168L181.238 246.016L180.351 243.712L178.462 243.942C178.23 243.536 177.964 243.151 177.667 242.79L178.715 240.774L176.872 239.172L175.04 240.44C174.597 240.164 174.13 239.929 173.646 239.737V237.605L171.261 237.075C171.261 237.075 170.639 238.285 170.258 239.045H170.085C169.763 239.045 169.44 239.045 169.129 239.045L167.977 237.213L165.673 237.974C165.673 237.974 165.742 239.126 165.799 240.002C165.306 240.243 164.836 240.528 164.394 240.854L162.389 239.84L160.811 241.695C160.811 241.695 161.502 242.698 161.963 243.389C161.729 243.758 161.521 244.143 161.341 244.541L159.036 244.679L158.61 247.088L160.43 247.906C160.43 248.159 160.43 248.412 160.43 248.666C160.43 248.896 160.43 249.115 160.43 249.334L158.472 250.728L159.393 253.033L161.318 252.779C161.526 253.218 161.765 253.641 162.032 254.047L161.029 256.351L162.977 257.837L164.521 256.489C165.01 256.827 165.526 257.124 166.064 257.376L166.376 259.681L168.795 259.934L169.452 258.194H170.051C170.396 258.217 170.743 258.217 171.088 258.194L172.574 260.084L174.786 259.059C174.786 259.059 174.602 258.01 174.452 257.192C174.937 256.94 175.4 256.647 175.835 256.316L177.955 257.284L179.453 255.36L178.208 253.735C178.59 253.127 178.903 252.478 179.142 251.8L181.192 251.65ZM163.276 248.631C163.274 247.291 163.669 245.98 164.412 244.864C165.155 243.749 166.213 242.879 167.45 242.364C168.688 241.85 170.051 241.714 171.366 241.974C172.68 242.234 173.889 242.878 174.837 243.825C175.786 244.772 176.432 245.979 176.695 247.294C176.957 248.608 176.823 249.971 176.311 251.21C175.799 252.448 174.93 253.507 173.816 254.252C172.702 254.997 171.391 255.395 170.051 255.395C169.162 255.396 168.281 255.222 167.459 254.883C166.637 254.544 165.89 254.046 165.261 253.418C164.632 252.79 164.133 252.044 163.792 251.222C163.452 250.401 163.276 249.521 163.276 248.631Z" fill="#66AFAB"/>
<path opacity="0.38" d="M169.753 268.529C165.675 268.531 161.688 267.324 158.297 265.06C154.905 262.796 152.262 259.577 150.7 255.81C149.139 252.043 148.729 247.898 149.524 243.899C150.319 239.899 152.283 236.225 155.166 233.342C158.049 230.458 161.723 228.495 165.723 227.7C169.722 226.905 173.868 227.314 177.634 228.876C181.401 230.437 184.62 233.081 186.884 236.473C189.148 239.864 190.356 243.851 190.353 247.928C190.347 253.39 188.175 258.627 184.313 262.489C180.451 266.351 175.214 268.523 169.753 268.529ZM169.753 228.353C165.879 228.353 162.092 229.502 158.871 231.654C155.65 233.806 153.139 236.865 151.657 240.444C150.174 244.023 149.786 247.962 150.542 251.761C151.298 255.561 153.163 259.051 155.903 261.79C158.642 264.529 162.132 266.395 165.931 267.15C169.731 267.906 173.669 267.518 177.248 266.036C180.827 264.553 183.886 262.043 186.039 258.822C188.191 255.601 189.339 251.814 189.339 247.94C189.339 242.745 187.276 237.763 183.603 234.09C179.929 230.417 174.947 228.353 169.753 228.353Z" fill="#66AFAB"/>
</g>
<g opacity="0.56">
<path opacity="0.56" d="M380.608 238.515L380.885 236.891L379.571 236.315C379.572 236.037 379.549 235.759 379.502 235.485L380.654 234.69L380.055 233.146L378.765 233.307C378.613 233.02 378.435 232.746 378.235 232.489L378.949 231.13L377.693 230.035L376.449 230.899C376.15 230.712 375.833 230.554 375.504 230.427V228.975L373.891 228.618C373.891 228.618 373.465 229.436 373.211 229.955H373.096H372.451L371.679 228.722L370.112 229.229C370.112 229.229 370.112 230.035 370.204 230.6C369.871 230.771 369.551 230.967 369.248 231.188L367.888 230.496L366.817 231.752L367.623 232.904C367.464 233.143 367.321 233.394 367.197 233.653L365.642 233.757L365.342 235.404L366.575 235.957C366.575 236.13 366.575 236.303 366.575 236.476C366.575 236.649 366.575 236.775 366.575 236.925L365.25 237.87L365.872 239.402L367.174 239.23C367.313 239.53 367.475 239.819 367.658 240.094L366.978 241.638L368.303 242.64L369.34 241.81C369.672 242.039 370.023 242.239 370.389 242.41L370.596 243.988L372.232 244.161C372.232 244.161 372.486 243.504 372.681 243.009H373.085C373.315 243.009 373.557 243.009 373.788 243.009L374.79 244.288L376.288 243.596C376.288 243.596 376.161 242.882 376.069 242.329C376.395 242.158 376.707 241.961 377.002 241.741L378.442 242.387L379.456 241.085L378.604 239.99C378.865 239.578 379.078 239.138 379.237 238.677L380.608 238.515ZM368.476 236.476C368.476 235.564 368.746 234.673 369.253 233.915C369.759 233.158 370.479 232.567 371.321 232.218C372.163 231.869 373.09 231.778 373.984 231.956C374.878 232.134 375.699 232.573 376.344 233.217C376.988 233.862 377.427 234.683 377.605 235.577C377.783 236.471 377.691 237.397 377.343 238.24C376.994 239.082 376.403 239.801 375.645 240.308C374.887 240.814 373.996 241.085 373.085 241.085C371.862 241.085 370.69 240.599 369.826 239.735C368.962 238.87 368.476 237.698 368.476 236.476Z" fill="#66AFAB"/>
<path opacity="0.56" d="M372.855 249.956C370.093 249.956 367.393 249.137 365.097 247.603C362.8 246.069 361.011 243.888 359.954 241.336C358.897 238.784 358.62 235.977 359.159 233.268C359.698 230.559 361.028 228.071 362.981 226.118C364.934 224.165 367.422 222.835 370.131 222.296C372.839 221.757 375.647 222.034 378.199 223.091C380.75 224.148 382.931 225.938 384.466 228.234C386 230.53 386.819 233.23 386.819 235.992C386.816 239.695 385.344 243.245 382.726 245.863C380.108 248.481 376.557 249.953 372.855 249.956ZM372.855 222.742C370.23 222.735 367.662 223.508 365.477 224.961C363.291 226.415 361.586 228.484 360.577 230.907C359.569 233.331 359.302 235.999 359.81 238.574C360.319 241.149 361.581 243.515 363.435 245.373C365.289 247.23 367.653 248.496 370.227 249.009C372.802 249.522 375.47 249.26 377.895 248.256C380.32 247.251 382.393 245.55 383.85 243.366C385.307 241.183 386.084 238.617 386.082 235.992C386.079 232.483 384.685 229.118 382.206 226.634C379.727 224.151 376.364 222.751 372.855 222.742Z" fill="#66AFAB"/>
</g>
<path d="M128.896 125.995C128.619 155.49 128.808 184.989 129.46 214.493L434.704 213.513L432.399 24.1318L129.149 52.0488" fill="white"/>
<path d="M430.256 4.56797C432.46 75.2341 433.47 145.9 433.286 216.566C433.286 216.872 433.407 217.165 433.623 217.381C433.839 217.597 434.132 217.719 434.438 217.719C434.743 217.719 435.037 217.597 435.253 217.381C435.469 217.165 435.59 216.872 435.59 216.566C435.774 145.9 434.764 75.2341 432.56 4.56797C432.56 3.05863 430.163 3.04711 430.256 4.56797Z" fill="#66AFAB"/>
<path d="M127.893 32.6118C206.344 24.1549 284.761 15.6865 363.35 8.77353C385.748 6.81485 408.158 4.99443 430.579 3.31226C432.077 3.19705 432.088 0.846631 430.579 1.00793C351.909 6.88398 273.412 14.7533 194.973 23.0834C172.613 25.4646 150.253 27.8649 127.893 30.2845C126.407 30.4458 126.396 32.7962 127.893 32.5888V32.6118Z" fill="#66AFAB"/>
<path d="M126.844 52.164C206.474 45.758 286.031 38.6606 365.515 30.872C387.959 28.6675 410.395 26.4131 432.824 24.1088C434.31 23.9475 434.333 21.5971 432.824 21.8045C353.371 29.9848 273.848 37.4739 194.257 44.2717C171.789 46.1996 149.318 48.0623 126.844 49.8597C125.346 49.9749 125.334 52.3253 126.844 52.164Z" fill="#66AFAB"/>
<path d="M126.096 31.6209C125.866 62.2685 125.908 92.9123 126.223 123.552C126.223 123.858 126.344 124.151 126.56 124.367C126.777 124.583 127.07 124.704 127.375 124.704C127.681 124.704 127.974 124.583 128.19 124.367C128.406 124.151 128.527 123.858 128.527 123.552C128.212 92.9046 128.174 62.2608 128.412 31.6209C128.412 31.3077 128.288 31.0073 128.066 30.7858C127.845 30.5644 127.544 30.4399 127.231 30.4399C126.918 30.4399 126.618 30.5644 126.396 30.7858C126.175 31.0073 126.05 31.3077 126.05 31.6209H126.096Z" fill="#66AFAB"/>
<path d="M129.218 217.096L366.817 216.037L434.703 215.737C435.008 215.737 435.301 215.616 435.517 215.399C435.734 215.183 435.855 214.89 435.855 214.585C435.855 214.279 435.734 213.986 435.517 213.77C435.301 213.554 435.008 213.433 434.703 213.433L196.815 214.493L129.218 214.792C128.912 214.792 128.619 214.914 128.403 215.13C128.187 215.346 128.065 215.639 128.065 215.944C128.065 216.25 128.187 216.543 128.403 216.759C128.619 216.975 128.912 217.096 129.218 217.096Z" fill="#66AFAB"/>
<path d="M129.958 212.764L128.932 212.695V215L147.113 215.541C148.623 215.541 148.623 213.237 147.113 213.237L128.932 212.707C127.4 212.707 127.434 215.011 128.932 215.011L129.958 215.08C131.467 215.184 131.456 212.834 129.958 212.776V212.764Z" fill="#7888ED"/>
<path d="M131.693 212.914C131.103 212.493 130.374 212.311 129.654 212.408C129.349 212.408 129.055 212.529 128.839 212.745C128.623 212.961 128.502 213.254 128.502 213.56C128.502 213.865 128.623 214.158 128.839 214.374C129.055 214.59 129.349 214.712 129.654 214.712L141.763 215.184C143.284 215.253 143.273 212.88 141.763 212.88L129.654 212.408V214.712L130.507 214.908C131.774 215.737 132.949 213.756 131.659 212.868L131.693 212.914Z" fill="#7888ED"/>
<path d="M139.791 43.1603C141.625 42.9077 142.917 41.2823 142.676 39.5299C142.434 37.7774 140.752 36.5616 138.917 36.8141C137.083 37.0667 135.791 38.6921 136.033 40.4446C136.274 42.197 137.957 43.4129 139.791 43.1603Z" fill="#EBAB4C"/>
<path d="M150.636 42.1509C152.481 42.0037 153.864 40.4549 153.723 38.6915C153.583 36.9281 151.972 35.618 150.126 35.7652C148.281 35.9124 146.898 37.4612 147.039 39.2246C147.179 40.988 148.79 42.2982 150.636 42.1509Z" stroke="#EBAB4C" stroke-width="1.15217" stroke-miterlimit="10"/>
<path d="M161.761 41.2686C163.607 41.1214 164.989 39.5726 164.848 37.8092C164.708 36.0458 163.097 34.7356 161.251 34.8829C159.406 35.0301 158.023 36.5789 158.164 38.3423C158.304 40.1057 159.915 41.4158 161.761 41.2686Z" stroke="#EBAB4C" stroke-width="1.15217" stroke-miterlimit="10"/>
<path d="M209.169 65.126H115.486V136.272H209.169V65.126Z" fill="white"/>
<path opacity="0.65" d="M200.147 73.813H125.141V126.916H200.147V73.813Z" fill="#F2D78F"/>
<g opacity="0.41">
<path opacity="0.41" d="M114.838 66.9464L210.203 66.3704C213.233 66.3704 213.233 61.6465 210.203 61.6695L114.838 62.2341C111.808 62.2341 111.808 66.958 114.838 66.9464Z" fill="#F2D78F"/>
</g>
<g opacity="0.41">
<path opacity="0.41" d="M112.064 64.7687C112.283 88.7107 112.87 112.676 111.96 136.606C111.845 139.636 116.569 139.636 116.661 136.606C117.571 112.676 116.984 88.7107 116.765 64.7687C116.765 61.7385 112.041 61.727 112.064 64.7687Z" fill="#F2D78F"/>
</g>
<g opacity="0.41">
<path opacity="0.41" d="M113.409 134.982L113.294 135.131C113.036 135.581 112.933 136.103 112.999 136.616C113.066 137.13 113.299 137.608 113.662 137.977C116.796 141.307 127.074 139.452 131.083 139.441H157.583H210.479C213.509 139.441 213.509 134.728 210.479 134.728H163.332H140.289H128.767C127.292 134.728 117.937 135.661 116.981 134.636L117.349 137.493L117.453 137.344C119.262 134.913 115.149 132.574 113.397 134.97L113.409 134.982Z" fill="#F2D78F"/>
</g>
<g opacity="0.41">
<path opacity="0.41" d="M207.622 64.1926C208.022 88.3343 208.233 112.476 208.256 136.618C208.256 139.636 212.968 139.648 212.968 136.618C212.968 112.468 212.757 88.3267 212.335 64.1926C212.277 61.174 207.576 61.1624 207.622 64.1926Z" fill="#F2D78F"/>
</g>
<path d="M147.814 96.338L175.72 96.5339C178.75 96.5339 178.75 91.8446 175.72 91.8216L147.814 91.6372C144.796 91.6372 144.784 96.315 147.814 96.338Z" fill="white"/>
<path d="M143.827 95.9002V110.095C143.827 113.114 148.528 113.125 148.528 110.095V95.9002C148.528 92.8815 143.827 92.87 143.827 95.9002Z" fill="white"/>
<path d="M176.387 95.6815C176.709 100.436 176.836 105.198 176.767 109.968C176.709 112.999 181.375 112.999 181.468 109.968C181.537 105.198 181.41 100.436 181.087 95.6815C180.88 92.6743 176.179 92.6513 176.387 95.6815Z" fill="white"/>
<path d="M147.585 113.978L176.827 114.047C179.857 114.047 179.857 109.346 176.827 109.346L147.585 109.277C144.555 109.277 144.555 113.966 147.585 113.978Z" fill="white"/>
<path d="M146.488 91.4993C145.539 91.779 144.733 92.4141 144.24 93.2725C143.746 94.1308 143.602 95.1464 143.838 96.1079C144.008 96.707 144.406 97.2154 144.947 97.5236C145.488 97.8318 146.129 97.9151 146.73 97.7555C147.322 97.5759 147.823 97.1754 148.127 96.6369C148.432 96.0985 148.517 95.4635 148.366 94.8636C148.436 95.0691 148.436 95.2918 148.366 95.4973C148.447 95.2553 148.366 95.3014 148.309 95.6355C148.251 95.9697 148.055 95.9351 148.228 95.7508C148.101 95.9079 147.928 96.0209 147.733 96.0734C148.03 95.9917 148.308 95.8522 148.552 95.6629C148.795 95.4737 148.999 95.2383 149.151 94.9703C149.304 94.7023 149.402 94.4069 149.44 94.1009C149.479 93.795 149.456 93.4845 149.375 93.1872C149.293 92.8899 149.153 92.6116 148.964 92.3682C148.775 92.1247 148.54 91.921 148.272 91.7685C148.004 91.6161 147.708 91.5179 147.402 91.4796C147.096 91.4413 146.786 91.4637 146.488 91.5454V91.4993Z" fill="white"/>
<path d="M144.033 111.063C144.162 111.658 144.416 112.22 144.78 112.708C145.144 113.197 145.608 113.603 146.142 113.897C146.68 114.212 147.32 114.3 147.923 114.142C148.526 113.984 149.042 113.594 149.356 113.056C149.671 112.518 149.759 111.877 149.602 111.274C149.444 110.672 149.053 110.156 148.515 109.841C148.296 109.703 148.319 109.738 148.584 109.922C148.412 109.738 148.423 109.772 148.584 110.026C148.458 109.795 148.469 109.83 148.584 110.129C148.545 110.025 148.518 109.917 148.504 109.807C148.427 109.506 148.29 109.224 148.101 108.978C147.913 108.731 147.676 108.526 147.406 108.373C147.136 108.22 146.838 108.123 146.53 108.089C146.221 108.054 145.909 108.082 145.612 108.171C145.019 108.35 144.518 108.75 144.212 109.288C143.905 109.826 143.817 110.461 143.964 111.063H144.033Z" fill="white"/>
<path d="M176.641 114.012C177.676 114.05 178.693 113.746 179.539 113.149C180.384 112.552 181.009 111.693 181.319 110.706C181.479 110.104 181.395 109.463 181.087 108.922C180.779 108.381 180.27 107.983 179.671 107.814C179.07 107.663 178.434 107.751 177.895 108.057C177.356 108.364 176.957 108.867 176.779 109.461C176.929 109.139 176.952 109.093 176.837 109.323C176.722 109.553 176.722 109.496 176.929 109.219C176.858 109.298 176.781 109.371 176.699 109.438C176.952 109.254 177.01 109.208 176.86 109.3C176.307 109.53 177.24 109.185 176.779 109.3C176.526 109.358 176.584 109.3 176.952 109.3H176.641C176.03 109.3 175.444 109.543 175.012 109.975C174.58 110.407 174.337 110.993 174.337 111.604C174.365 112.206 174.617 112.776 175.043 113.203C175.469 113.629 176.039 113.881 176.641 113.909V114.012Z" fill="white"/>
<path d="M176.709 96.488C176.916 96.488 176.905 96.488 176.709 96.488C176.553 96.5453 176.381 96.5453 176.225 96.488C176.628 96.6032 175.914 96.2806 176.144 96.4304C176.375 96.5802 175.787 96.0156 176.144 96.4304L175.96 96.1884C176.087 96.4073 176.064 96.3497 175.902 96.0271C175.984 96.3252 176.124 96.6042 176.313 96.8484C176.503 97.0925 176.738 97.2969 177.007 97.4499C177.276 97.6029 177.572 97.7014 177.878 97.74C178.185 97.7786 178.496 97.7564 178.794 97.6747C179.092 97.593 179.371 97.4534 179.615 97.2638C179.86 97.0743 180.064 96.8385 180.217 96.57C180.37 96.3014 180.469 96.0054 180.507 95.6987C180.546 95.3921 180.523 95.0808 180.442 94.7828C180.144 93.778 179.465 92.9297 178.55 92.4193C177.635 91.909 176.556 91.7772 175.545 92.0521C175.248 92.1338 174.969 92.2733 174.726 92.4626C174.483 92.6518 174.279 92.8872 174.126 93.1552C173.974 93.4232 173.876 93.7186 173.838 94.0246C173.799 94.3305 173.822 94.641 173.903 94.9383C173.985 95.2356 174.124 95.5139 174.314 95.7574C174.503 96.0008 174.738 96.2045 175.006 96.357C175.274 96.5094 175.57 96.6076 175.876 96.6459C176.182 96.6842 176.492 96.6619 176.789 96.5802L176.709 96.488Z" fill="white"/>
<path d="M160.363 95.186C158.266 95.7506 156.285 96.6953 155.386 98.8153C154.556 100.866 154.556 103.159 155.386 105.21C157.379 109.715 162.552 110.418 166.666 108.666C169.431 107.514 167.034 103.401 164.292 104.611C162.737 105.291 160.421 105.141 159.683 103.366C159.45 102.675 159.422 101.93 159.603 101.223C159.833 100.14 160.651 100.071 161.642 99.7716C164.557 98.9882 163.324 94.4486 160.386 95.2321L160.363 95.186Z" fill="white"/>
<path d="M161.825 99.4834C162.461 99.3767 163.115 99.4841 163.684 99.7889C164.252 100.094 164.704 100.579 164.968 101.168C165.231 101.757 165.292 102.417 165.14 103.044C164.988 103.671 164.633 104.23 164.129 104.634C161.744 106.431 164.129 110.521 166.502 108.701C168.007 107.727 169.118 106.253 169.64 104.539C170.162 102.825 170.061 100.981 169.355 99.3343C168.649 97.6875 167.383 96.3435 165.781 95.54C164.18 94.7365 162.346 94.5254 160.603 94.9439C157.631 95.4624 158.887 99.9904 161.848 99.4834H161.825Z" fill="white"/>
<path d="M160.337 89.7364C160.181 89.2232 159.868 88.7717 159.442 88.4452C159.017 88.1188 158.5 87.9337 157.963 87.916C157.415 87.9247 156.885 88.1115 156.453 88.4483C156.02 88.785 155.709 89.2534 155.567 89.7825C155.455 90.3868 155.436 91.0044 155.509 91.6145V93.1468C155.509 93.7717 155.758 94.3711 156.199 94.8129C156.641 95.2548 157.241 95.503 157.865 95.503C158.49 95.503 159.09 95.2548 159.532 94.8129C159.973 94.3711 160.222 93.7717 160.222 93.1468C160.222 92.2366 160.095 91.3034 160.141 90.4047L159.818 91.5569V91.4416L158.413 92.5247H158.493H157.249H157.318L155.682 90.8771V90.9462C155.862 91.5387 156.262 92.0398 156.8 92.3463C157.338 92.6527 157.973 92.7413 158.574 92.5938C159.171 92.4216 159.678 92.0229 159.986 91.4828C160.293 90.9426 160.378 90.3036 160.222 89.7019L160.337 89.7364Z" fill="white"/>
<path d="M158.69 92.5705C159.877 92.4068 161.079 92.3759 162.273 92.4784C163.39 92.3973 164.513 92.4205 165.626 92.5475L164.22 91.476C164.309 92.1405 164.278 92.8157 164.128 93.4692C163.852 96.4879 168.552 96.4648 168.829 93.4692C169.059 91.0727 168.829 88.1347 165.914 87.8582C163.093 87.5218 160.238 87.5838 157.434 88.0425C154.473 88.6186 155.729 93.1581 158.69 92.5705Z" fill="white"/>
<path d="M148.735 101.961L148.804 101.788L147.156 103.424C148.645 103.251 150.149 103.251 151.638 103.424H156.5C159.53 103.424 159.53 98.7232 156.5 98.7232H149.023C146.972 98.7232 145.059 98.4582 144.195 100.682C143.112 103.516 147.651 104.737 148.735 101.938V101.961Z" fill="white"/>
<path d="M168.001 98.5154H167.459C164.441 98.5961 164.417 103.228 167.459 103.216C170.985 103.216 174.507 103.113 178.025 102.905C181.032 102.732 181.055 98.0315 178.025 98.2044C174.514 98.4041 170.992 98.5078 167.459 98.5154V103.251H168.001C171.019 103.17 171.031 98.4694 168.001 98.55V98.5154Z" fill="white"/>
<path d="M153.266 106.592H50.6543V185.066H153.266V106.592Z" fill="white"/>
<path d="M140.579 116.225H60.3311V172.946H140.579V116.225Z" fill="#66AFAB"/>
<path d="M49.5558 108.931C82.7036 109.3 116.036 110.671 149.161 109.047C152.168 108.897 152.191 104.184 149.161 104.334C116.036 105.97 82.7036 104.599 49.5558 104.23C46.5257 104.23 46.5257 108.897 49.5558 108.931Z" fill="#66AFAB"/>
<path d="M47.0001 106.926C47.1998 132.574 47.219 158.221 47.0577 183.868C47.0577 186.887 51.747 186.898 51.7585 183.868C51.9198 158.221 51.9006 132.574 51.7009 106.926C51.7009 103.896 46.977 103.885 47.0001 106.926Z" fill="#66AFAB"/>
<path d="M150.051 109.116L151.744 108.92L149.44 106.615C149.486 131.517 149.425 156.416 149.256 181.31C149.256 184.329 153.945 184.34 153.956 181.31C154.125 156.408 154.187 131.51 154.141 106.615C154.123 106.01 153.875 105.434 153.447 105.005C153.018 104.577 152.442 104.328 151.836 104.311L150.143 104.507C147.17 104.841 147.136 109.542 150.143 109.208L150.051 109.116Z" fill="#66AFAB"/>
<path d="M86.8776 130.834C86.6164 140.443 86.6587 150.044 87.0043 159.638C87.1195 162.656 91.8204 162.668 91.7052 159.638C91.3595 150.044 91.3173 140.443 91.5784 130.834C91.6591 127.803 86.9698 127.803 86.8776 130.834Z" fill="white"/>
<path d="M109.227 130.834C109.55 140.267 109.631 149.703 109.469 159.143C109.469 162.173 114.078 162.173 114.17 159.143C114.331 149.711 114.251 140.274 113.928 130.834C113.824 127.816 109.124 127.804 109.227 130.834Z" fill="white"/>
<path d="M91.5563 130.396C94.5865 130.396 94.598 125.695 91.5563 125.695C88.5145 125.695 88.5261 130.396 91.5563 130.396Z" fill="white"/>
<path d="M92.2817 130.419C97.4779 129.267 103.631 130.097 108.942 130.062C111.972 130.062 111.972 125.338 108.942 125.361C103.181 125.361 96.6829 124.647 91.0373 125.891C88.0763 126.536 89.3321 131.076 92.2817 130.419Z" fill="white"/>
<path d="M91.544 164.12C97.2472 164.604 103.066 164.247 108.826 164.2C111.845 164.2 111.857 159.477 108.826 159.5C103.066 159.5 97.3048 159.891 91.544 159.419C88.5369 159.154 88.5484 163.866 91.544 164.12Z" fill="white"/>
<path d="M90.5055 128.599H90.4479L91.5309 130.005V131.157C91.3696 131.518 91.3696 131.564 91.5309 131.295C91.5932 131.18 91.6625 131.068 91.7383 130.961C91.8074 130.857 92.1761 130.442 91.8305 130.823C91.9572 130.673 92.0954 130.535 92.2222 130.396C92.3489 130.258 92.395 130.224 92.2222 130.396C92.0494 130.569 91.9111 130.512 92.1646 130.454C92.7653 130.287 93.2757 129.889 93.5843 129.348C93.8929 128.806 93.9749 128.164 93.8122 127.562C93.6301 126.972 93.2292 126.473 92.6914 126.169C92.1537 125.865 91.52 125.778 90.9203 125.926C89.6454 126.317 88.5665 127.178 87.9016 128.334C87.5438 128.789 87.2706 129.304 87.0951 129.855C86.94 130.383 86.9697 130.948 87.1791 131.457C87.3886 131.966 87.7654 132.389 88.2472 132.655C88.8031 132.945 89.4434 133.031 90.0561 132.897C90.519 132.795 90.9392 132.553 91.2596 132.204C91.5801 131.855 91.7851 131.416 91.8469 130.946C91.9086 130.476 91.824 129.999 91.6045 129.579C91.3851 129.159 91.0416 128.817 90.6207 128.599H90.5055Z" fill="white"/>
<path d="M110.391 129.82L110.069 129.958H108.824C109.066 129.958 109.02 129.958 108.675 129.878C108.893 130.016 108.87 130.004 108.675 129.82C108.764 129.896 108.845 129.981 108.916 130.073C108.755 129.843 108.721 129.808 108.813 129.947C108.87 130.016 108.916 130.094 108.951 130.177C109.066 130.408 109.066 130.384 108.951 130.085C109.066 130.177 109.089 130.626 109.112 130.776C109.189 131.077 109.326 131.359 109.515 131.605C109.703 131.851 109.94 132.057 110.21 132.21C110.48 132.363 110.778 132.459 111.086 132.494C111.395 132.529 111.707 132.501 112.004 132.412C112.593 132.228 113.09 131.826 113.393 131.289C113.697 130.752 113.786 130.12 113.64 129.52C113.329 127.216 110.576 124.209 108.098 125.753C107.831 125.909 107.598 126.116 107.411 126.362C107.223 126.608 107.087 126.889 107.008 127.188C106.929 127.487 106.91 127.798 106.952 128.105C106.994 128.411 107.096 128.706 107.252 128.973C107.407 129.24 107.614 129.474 107.861 129.661C108.107 129.848 108.387 129.985 108.686 130.063C108.985 130.142 109.297 130.161 109.603 130.119C109.91 130.077 110.205 129.976 110.472 129.82H110.391Z" fill="white"/>
<path d="M109.804 163.878C110.697 163.724 111.532 163.33 112.218 162.737C112.904 162.144 113.416 161.375 113.698 160.514C113.865 159.912 113.785 159.268 113.477 158.725C113.17 158.181 112.658 157.783 112.056 157.616C111.454 157.449 110.811 157.529 110.267 157.837C109.724 158.145 109.325 158.656 109.159 159.258C109.032 159.753 109.389 158.912 109.159 159.258C109.366 159.004 109.366 158.97 109.159 159.154C109.401 158.981 109.447 158.947 109.297 159.039C109.216 159.092 109.132 159.138 109.043 159.177L109.182 159.12L108.548 159.304C108.251 159.386 107.972 159.525 107.729 159.714C107.486 159.904 107.282 160.139 107.129 160.407C106.977 160.675 106.879 160.97 106.84 161.276C106.802 161.582 106.825 161.893 106.906 162.19C106.988 162.487 107.127 162.766 107.317 163.009C107.506 163.253 107.741 163.456 108.009 163.609C108.277 163.761 108.573 163.859 108.879 163.898C109.185 163.936 109.495 163.914 109.792 163.832L109.804 163.878Z" fill="white"/>
<path d="M87.4185 160.64C87.6696 161.494 88.1901 162.244 88.9024 162.778C89.6146 163.311 90.4804 163.6 91.3704 163.602C91.9938 163.602 92.5916 163.354 93.0324 162.913C93.4732 162.472 93.7208 161.875 93.7208 161.251C93.7208 160.628 93.4732 160.03 93.0324 159.589C92.5916 159.148 91.9938 158.901 91.3704 158.901C91.0478 158.901 91.3704 158.901 91.5202 158.901L91.7852 159.027C91.6009 158.912 91.5893 158.924 91.7852 159.027C91.9811 159.131 91.9235 159.143 91.7852 159.027C91.6469 158.912 91.7046 158.947 91.7852 159.027C91.8659 159.108 91.9004 159.177 91.7852 159.027C91.67 158.878 91.7852 158.935 91.8658 159.223C91.7008 158.623 91.3041 158.113 90.7628 157.805C90.2215 157.497 89.5801 157.416 88.9797 157.581C88.3792 157.747 87.8689 158.143 87.561 158.685C87.2531 159.226 87.1728 159.867 87.3378 160.468L87.4185 160.64Z" fill="white"/>
<path d="M90.4373 163.774C90.8397 163.903 91.2593 163.969 91.6817 163.97C92.2928 163.97 92.8789 163.727 93.3111 163.295C93.7432 162.863 93.986 162.277 93.986 161.666C93.9632 161.062 93.7131 160.489 93.2858 160.062C92.8585 159.634 92.2855 159.384 91.6817 159.361C91.9582 159.415 91.9582 159.415 91.6817 159.361C91.1043 159.205 90.4892 159.272 89.9594 159.55C89.4296 159.828 89.0242 160.295 88.8243 160.859C88.6797 161.46 88.7695 162.094 89.0756 162.631C89.3817 163.169 89.881 163.569 90.4719 163.751L90.4373 163.774Z" fill="white"/>
<path d="M89.6996 129.428L89.2848 129.486C86.3814 129.866 86.1625 134.186 89.2848 134.186C96.5089 134.186 103.745 134.394 110.957 134.002C113.964 133.829 113.987 129.128 110.957 129.29C103.745 129.693 96.5089 129.497 89.2848 129.486V134.186H89.6996C92.6607 133.795 92.7068 129.082 89.6996 129.474V129.428Z" fill="white"/>
<path d="M90.4497 155.098L89.4818 154.995V159.707C96.6598 159.569 103.999 159.845 111.143 159.085C114.127 158.762 114.161 154.061 111.143 154.384C103.999 155.144 96.6598 154.868 89.4818 154.995C86.394 155.052 86.5092 159.407 89.4818 159.707L90.4497 159.799C93.4568 160.087 93.4338 155.386 90.4497 155.098Z" fill="white"/>
<path d="M51.0549 186.426L107.2 186L134.702 185.769C139.242 185.769 143.919 185.965 148.447 185.654C150.844 185.481 152.1 185.447 153.39 183.35C154.992 180.769 150.925 178.395 149.335 180.976C148.758 181.887 138.377 180.976 136.995 181.045L124.39 181.149L100.321 181.345C83.9069 181.483 67.4848 181.606 51.0549 181.714C48.0247 181.714 48.0247 186.438 51.0549 186.426Z" fill="#66AFAB"/>
<path d="M195.514 167.703H100.449V243.907H195.514V167.703Z" fill="white"/>
<path d="M182.482 179.456H112.165V230.531H182.482V179.456Z" fill="#EDC36F"/>
<path d="M99.284 169.789C131.118 168.268 163.287 169.512 195.167 169.512C198.197 169.512 198.197 164.811 195.167 164.811C163.287 164.811 131.118 163.567 99.284 165.088C96.2653 165.238 96.2538 169.939 99.284 169.789Z" fill="#EDC36F"/>
<g opacity="0.79">
<path opacity="0.79" d="M96.0031 167.669L96.9133 242.559C96.9133 245.59 101.649 245.59 101.614 242.559L100.704 167.669C100.704 164.638 95.9686 164.638 96.0031 167.669Z" fill="#EBAB4C"/>
</g>
<g opacity="0.79">
<path opacity="0.79" d="M99.1941 247.468C132.031 245.636 164.948 248.539 197.831 246.984C200.85 246.834 200.861 242.133 197.831 242.272C164.868 243.815 131.985 240.935 99.1941 242.755C96.1754 242.928 96.1639 247.629 99.1941 247.468Z" fill="#EBAB4C"/>
</g>
<path d="M193.51 166.954L193.809 243.4C193.809 246.431 198.522 246.431 198.51 243.4L198.211 166.954C198.211 163.924 193.487 163.924 193.51 166.954Z" fill="#EDC36F"/>
<path d="M124.542 202.441C130.303 202.441 142.55 204.999 144.324 197.256L141.479 198.881C145.661 199.629 149.313 202.452 153.334 203.893C155.04 204.492 168.727 206.75 167.16 209.469C165.593 212.188 169.73 214.481 171.216 211.842C173.636 207.568 170.893 203.432 166.527 202.072C162.598 200.851 158.462 200.77 154.556 199.353C150.65 197.936 146.963 195.113 142.688 194.341C142.087 194.191 141.451 194.278 140.912 194.585C140.373 194.892 139.974 195.395 139.796 195.989C139.186 198.881 126.846 197.728 124.542 197.728C121.523 197.728 121.512 202.441 124.542 202.429V202.441Z" fill="white"/>
<path d="M126.247 213.744C140.465 213.874 154.675 213.805 168.877 213.536C171.896 213.536 171.908 208.778 168.877 208.835C154.66 209.104 140.45 209.173 126.247 209.043C123.217 209.043 123.217 213.721 126.247 213.744Z" fill="white"/>
<path d="M123.759 200.033C123.257 201.646 123.13 203.353 123.391 205.022L123.805 211.267C124.001 214.274 128.702 214.297 128.506 211.267L128.149 205.851C127.852 204.323 127.904 202.748 128.299 201.243C129.451 198.443 124.842 197.222 123.759 199.998V200.033Z" fill="white"/>
<path d="M125.693 200.091C125.463 203.624 125.359 207.161 125.382 210.702L125.693 200.091Z" fill="white"/>
<path d="M124.162 200.724C124.529 204.037 124.637 207.373 124.485 210.702C124.347 213.732 129.094 213.721 129.186 210.702C129.338 207.373 129.23 204.037 128.863 200.724C128.541 197.752 123.828 197.717 124.162 200.724Z" fill="white"/>
<path d="M125.197 201.185C124.86 204.573 124.606 207.968 124.437 211.37C124.287 214.401 129.046 214.389 129.138 211.37C129.307 207.968 129.564 204.573 129.91 201.185C130.209 198.178 125.497 198.201 125.197 201.185Z" fill="white"/>
<path d="M393.212 189.307C393.212 189.307 394.364 191.139 396.023 194.33" stroke="#3E8080" stroke-width="1.15217" stroke-miterlimit="10"/>
<path d="M400.816 204.826C407.729 222.109 414.205 250.245 395.332 270.937C369.063 299.742 315.487 277.85 286.061 253.724C270.737 241.154 229.443 234.345 209.234 231.683" stroke="#3E8080" stroke-width="1.15217" stroke-miterlimit="10" stroke-dasharray="11.54 11.54"/>
<path d="M203.51 230.969C199.904 230.542 197.749 230.335 197.749 230.335" stroke="#3E8080" stroke-width="1.15217" stroke-miterlimit="10"/>
<path opacity="0.6" d="M382.281 81.2217L276.765 86.9826L276.466 57.7406L381.14 49.998L382.281 81.2217Z" fill="#E4EBEB"/>
<path opacity="0.78" d="M373.065 75.8526L336.921 77.7652C336.391 77.7652 335.954 77.5924 335.93 77.3043L334.663 60.5403C334.663 60.2523 335.055 60.0103 335.573 59.9873L371.728 58.0747C372.247 58.0747 373.572 58.0747 373.595 58.3051L373.975 75.2996C373.998 75.5991 373.595 75.8296 373.065 75.8526Z" fill="#F2D78F"/>
<path d="M349.512 69.8485L346.855 69.9758L346.357 71.6587L345.495 71.7L347.536 65.2454L348.268 65.2104L351.075 71.4327L350.217 71.4738L349.512 69.8485ZM347.066 69.2759L349.222 69.1726L347.964 66.2597L347.066 69.2759ZM351.929 71.3918L351.549 65.0532L353.339 64.9675C353.891 64.941 354.386 65.0396 354.825 65.263C355.263 65.4865 355.611 65.8177 355.867 66.2565C356.126 66.6953 356.275 67.2062 356.313 67.7895L356.337 68.1943C356.373 68.7922 356.288 69.3216 356.083 69.7826C355.881 70.2434 355.572 70.6046 355.156 70.8661C354.744 71.1274 354.253 71.2746 353.684 71.3077L351.929 71.3918ZM352.426 65.701L352.724 70.6682L353.604 70.6261C354.249 70.5952 354.738 70.3709 355.071 69.9533C355.407 69.5356 355.553 68.9566 355.509 68.2166L355.486 67.8465C355.443 67.1268 355.24 66.5762 354.876 66.1949C354.515 65.8105 354.024 65.6303 353.402 65.6543L352.426 65.701Z" fill="white"/>
<path opacity="0.61" d="M322.446 71.4977L284.125 73.6753C283.63 73.6753 283.204 73.4563 283.181 73.1222C283.181 72.7881 283.526 72.4885 284.022 72.454L322.343 70.2764C322.838 70.2764 323.276 70.4953 323.299 70.8294V70.887C323.322 71.1751 322.942 71.4631 322.446 71.4977Z" fill="#66AFAB"/>
<path opacity="0.61" d="M322.713 74.5621L284.404 76.7512C283.908 76.7512 283.482 76.5323 283.459 76.1982V76.1291C283.459 75.7949 283.805 75.4954 284.3 75.4723L322.621 73.2832C323.117 73.2832 323.554 73.5021 323.577 73.8478V73.9054C323.6 74.2395 323.22 74.5391 322.713 74.5621Z" fill="#66AFAB"/>
<path opacity="0.61" d="M323.001 77.6388L284.692 79.8279C284.196 79.8279 283.77 79.5974 283.747 79.2633V79.2057C283.747 78.8716 284.093 78.572 284.588 78.5375L322.909 76.3599C323.405 76.3599 323.842 76.5788 323.865 76.9129V76.9705C323.865 77.3162 323.497 77.6042 323.001 77.6388Z" fill="#66AFAB"/>
<path opacity="0.6" d="M385.013 121.744L279.359 123.414L280.177 94.1953L383.849 90.4854L385.013 121.744Z" fill="#E4EBEB"/>
<path opacity="0.78" d="M376.012 116.017L339.811 116.535C339.292 116.535 338.855 116.317 338.843 116.04L338.232 99.2299C338.232 98.9534 338.636 98.723 339.166 98.7114L375.355 98.193C375.885 98.193 376.116 97.6975 376.116 97.9741L376.945 115.498C376.957 115.775 376.542 116.017 376.012 116.017Z" fill="#F2D78F"/>
<path d="M352.655 109.106L349.999 109.138L349.435 110.8L348.573 110.81L350.868 104.441L351.599 104.432L354.152 110.744L353.294 110.754L352.655 109.106ZM350.238 108.447L352.393 108.421L351.254 105.469L350.238 108.447ZM355.005 110.733L354.879 104.393L356.669 104.372C357.22 104.365 357.71 104.481 358.139 104.72C358.568 104.959 358.902 105.302 359.14 105.749C359.381 106.196 359.509 106.712 359.524 107.295L359.532 107.7C359.544 108.298 359.438 108.823 359.215 109.276C358.994 109.729 358.672 110.078 358.247 110.324C357.825 110.57 357.329 110.7 356.761 110.712L355.005 110.733ZM355.729 105.071L355.828 110.04L356.708 110.029C357.352 110.021 357.849 109.815 358.198 109.41C358.55 109.005 358.719 108.433 358.704 107.692L358.697 107.322C358.682 106.602 358.501 106.046 358.153 105.652C357.809 105.255 357.326 105.058 356.704 105.059L355.729 105.071Z" fill="white"/>
<g opacity="0.61">
<path opacity="0.61" d="M306.021 64.4577L283.795 65.725C283.092 65.725 282.482 65.414 282.447 64.93L282.39 64.3655C282.39 63.8816 282.885 63.4668 283.542 63.4207L305.767 62.1533C306.47 62.1533 307.069 62.4644 307.115 62.9483V63.5244C307.253 63.9968 306.723 64.4231 306.021 64.4577Z" fill="#66AFAB"/>
<path opacity="0.61" d="M321.737 67.6722L284.164 69.8383C283.462 69.8383 282.851 69.5272 282.816 69.0548L282.759 68.4787C282.759 67.9948 283.254 67.58 283.911 67.5455L321.564 65.3794C322.267 65.3794 322.866 65.6905 322.912 66.1629L322.969 66.7389C322.969 67.2229 322.439 67.6376 321.737 67.6722Z" fill="#66AFAB"/>
<path opacity="0.61" d="M309.455 102.099L287.195 102.502C286.493 102.502 285.905 102.145 285.882 101.661V101.085C285.882 100.612 286.412 100.209 287.115 100.198L309.375 99.7944C310.077 99.7944 310.665 100.152 310.688 100.636V101.212C310.711 101.626 310.158 102.03 309.455 102.099Z" fill="#66AFAB"/>
<path opacity="0.61" d="M325.018 105.867L287.4 106.558C286.686 106.558 286.098 106.189 286.075 105.717V105.141C286.075 104.657 286.605 104.254 287.308 104.242L324.938 103.551C325.641 103.551 326.228 103.919 326.263 104.403V104.979C326.286 105.452 325.733 105.855 325.018 105.867Z" fill="#66AFAB"/>
</g>
<path opacity="0.61" d="M325.607 109.703L287.228 110.406C286.733 110.406 286.318 110.153 286.295 109.818C286.295 109.473 286.664 109.196 287.159 109.185L325.538 108.482C326.033 108.482 326.459 108.735 326.471 109.081V109.139C326.494 109.415 326.102 109.703 325.607 109.703Z" fill="#66AFAB"/>
<path opacity="0.61" d="M325.764 112.791L287.385 113.494C286.89 113.494 286.464 113.229 286.452 112.895V112.837C286.452 112.503 286.821 112.215 287.316 112.203L325.695 111.5C326.19 111.5 326.605 111.765 326.628 112.1C326.651 112.468 326.259 112.779 325.764 112.791Z" fill="#66AFAB"/>
<path opacity="0.61" d="M325.915 115.925L287.536 116.628C287.041 116.628 286.626 116.374 286.614 116.029C286.614 115.694 286.994 115.406 287.49 115.406L325.869 114.704C326.364 114.704 326.779 114.957 326.79 115.291V115.349C326.802 115.579 326.41 115.856 325.915 115.925Z" fill="#66AFAB"/>
<path d="M423.401 50.5282C423.541 53.8981 422.679 57.2338 420.925 60.1146C419.171 62.9954 416.603 65.2922 413.546 66.7154C410.488 68.1386 407.077 68.6243 403.744 68.1113C400.41 67.5983 397.303 66.1096 394.815 63.833C392.326 61.5563 390.568 58.5937 389.761 55.3189C388.955 52.044 389.136 48.6036 390.282 45.4316C391.428 42.2596 393.488 39.4982 396.202 37.4956C398.916 35.493 402.162 34.3389 405.531 34.179C407.78 34.0692 410.029 34.4059 412.147 35.1698C414.266 35.9337 416.212 37.1096 417.873 38.6296C419.535 40.1497 420.879 41.9838 421.827 44.026C422.776 46.0682 423.311 48.2781 423.401 50.5282ZM390.588 51.9569C390.839 56.0793 392.699 59.9381 395.768 62.7022C398.836 65.4662 402.868 66.9143 406.994 66.7345C411.12 66.5547 415.011 64.7614 417.827 61.7409C420.644 58.7204 422.162 54.7144 422.053 50.5858C421.998 48.4953 421.528 46.4366 420.669 44.5299C419.81 42.6233 418.58 40.9067 417.05 39.4805C415.521 38.0543 413.722 36.9469 411.761 36.223C409.799 35.4991 407.712 35.1731 405.623 35.2642C403.534 35.3552 401.483 35.8614 399.592 36.7532C397.7 37.645 396.005 38.9046 394.606 40.4585C393.206 42.0123 392.13 43.8294 391.44 45.8035C390.75 47.7777 390.46 49.8695 390.588 51.9569Z" fill="#66AFAB"/>
<path d="M411.844 53.2124C411.775 51.6339 411.672 50.0439 411.637 48.4654C411.669 48.1562 411.607 47.8444 411.459 47.571C411.311 47.2976 411.084 47.0753 410.807 46.9331C410.339 46.6688 409.977 46.2487 409.786 45.7457C409.594 45.2427 409.585 44.6886 409.759 44.1794C409.895 43.6707 410.194 43.2207 410.61 42.8981C411.026 42.5756 411.537 42.3983 412.063 42.3935C412.586 42.3759 413.101 42.5204 413.538 42.8071C413.976 43.0938 414.314 43.5087 414.506 43.995C414.706 44.5101 414.727 45.0774 414.567 45.606C414.406 46.1346 414.072 46.5938 413.619 46.91C413.413 47.0344 413.249 47.2166 413.147 47.4338C413.044 47.651 413.008 47.8937 413.043 48.1313C413.146 51.5878 413.446 55.0443 413.434 58.5008C413.434 58.9617 413.434 59.434 412.881 59.4917C412.328 59.5493 412.132 59.0654 412.109 58.5699L411.867 53.2239L411.844 53.2124ZM412.156 45.9998C412.789 45.9076 413.227 45.6081 413.215 44.8476C413.242 44.7004 413.235 44.5489 413.194 44.4049C413.153 44.2609 413.08 44.1282 412.98 44.0169C412.88 43.9056 412.755 43.8188 412.617 43.7631C412.478 43.7074 412.328 43.6842 412.179 43.6955C412.023 43.6792 411.866 43.6978 411.719 43.7499C411.572 43.8021 411.438 43.8864 411.328 43.9968C411.217 44.1073 411.133 44.241 411.081 44.3881C411.029 44.5353 411.01 44.6923 411.026 44.8476C411.013 45.0004 411.032 45.1543 411.084 45.2988C411.135 45.4432 411.218 45.5747 411.325 45.6843C411.432 45.7938 411.562 45.8788 411.706 45.9332C411.849 45.9877 412.002 46.0104 412.156 45.9998Z" fill="#66AFAB"/>
<path d="M406.754 45.8272C406.754 46.2305 406.812 46.6337 406.754 46.9794C406.683 47.4355 406.756 47.9025 406.963 48.3154C407.169 48.7283 407.499 49.0667 407.906 49.2837C408.216 49.5034 408.467 49.7963 408.637 50.1364C408.806 50.4765 408.889 50.8532 408.877 51.2329C408.866 51.6127 408.761 51.9838 408.571 52.3131C408.382 52.6424 408.114 52.9197 407.791 53.1204C407.536 53.2715 407.334 53.4976 407.213 53.7677C407.091 54.0378 407.056 54.3388 407.111 54.6298C407.204 55.9778 407.25 57.3258 407.296 58.6738C407.296 59.1578 407.296 59.6762 406.662 59.6878C406.028 59.6993 406.028 59.2038 406.005 58.7545C405.936 57.3143 405.867 55.8741 405.821 54.4339C405.827 54.2109 405.768 53.9909 405.652 53.8007C405.535 53.6105 405.366 53.4582 405.164 53.3624C404.77 53.161 404.436 52.8579 404.198 52.4845C403.959 52.111 403.825 51.6806 403.808 51.2379C403.792 50.7951 403.894 50.356 404.104 49.9659C404.314 49.5758 404.624 49.2488 405.003 49.0187C405.187 48.918 405.336 48.7639 405.431 48.5768C405.525 48.3896 405.561 48.1781 405.533 47.9702C405.441 46.4955 405.395 45.0322 405.326 43.569C405.326 43.1081 405.326 42.6357 405.936 42.6127C406.547 42.5896 406.605 43.039 406.628 43.4998C406.628 44.2487 406.697 44.9976 406.72 45.8042L406.754 45.8272ZM406.524 52.3139C406.662 52.3066 406.797 52.2696 406.92 52.2056C407.043 52.1416 407.151 52.0519 407.236 51.9427C407.321 51.8334 407.382 51.7072 407.414 51.5725C407.446 51.4378 407.449 51.2977 407.423 51.1617C407.413 50.8745 407.291 50.6027 407.081 50.406C406.871 50.2094 406.592 50.1041 406.305 50.1133C406.018 50.1224 405.746 50.2453 405.549 50.4549C405.353 50.6645 405.247 50.9436 405.257 51.2309C405.254 51.39 405.287 51.5477 405.352 51.6928C405.418 51.8378 405.515 51.9666 405.636 52.07C405.757 52.1735 405.899 52.2489 406.053 52.2911C406.206 52.3332 406.367 52.341 406.524 52.3139Z" fill="#66AFAB"/>
<path d="M400.83 49.2261C400.899 50.7469 401.003 52.2678 401.026 53.8347C400.985 54.199 401.054 54.5672 401.225 54.8918C401.395 55.2163 401.659 55.4822 401.982 55.6552C402.442 55.9432 402.785 56.3843 402.952 56.9007C403.118 57.417 403.097 57.9756 402.892 58.478C402.727 58.9419 402.427 59.3461 402.031 59.6394C401.635 59.9327 401.161 60.1019 400.669 60.1256C400.147 60.149 399.63 60.0098 399.19 59.727C398.751 59.4443 398.41 59.032 398.215 58.5471C397.999 58.0234 397.974 57.4411 398.142 56.9005C398.31 56.3599 398.662 55.895 399.136 55.586C399.343 55.4781 399.511 55.3103 399.62 55.1046C399.729 54.899 399.774 54.6651 399.747 54.4339C399.597 51.1502 399.459 47.878 399.321 44.5944C399.321 44.3409 399.321 44.0759 399.321 43.8224C399.321 43.5689 399.436 43.0505 399.92 43.0274C400.404 43.0044 400.565 43.3616 400.588 43.7648C400.657 44.8363 400.703 45.8963 400.749 46.9563L400.83 49.2261ZM399.448 57.6484C399.53 57.8807 399.684 58.0806 399.888 58.2186C400.093 58.3566 400.336 58.4255 400.582 58.4152C400.828 58.4048 401.065 58.3158 401.256 58.1613C401.448 58.0067 401.586 57.7946 401.648 57.5562C401.627 57.2525 401.487 56.9693 401.258 56.7686C401.03 56.5678 400.731 56.4657 400.427 56.4847C400.285 56.4948 400.147 56.5331 400.021 56.5975C399.895 56.6619 399.782 56.751 399.691 56.8595C399.6 56.968 399.531 57.0937 399.489 57.2292C399.448 57.3648 399.433 57.5073 399.448 57.6484Z" fill="#66AFAB"/>
<path d="M224.873 389.587L224.55 389.219C222.004 388.066 221.635 385.705 221.508 383.296C221.025 374.137 222.085 365 222.246 355.852C222.35 349.653 222.776 343.443 223.075 337.233C223.508 334.72 223.508 332.153 223.075 329.64C222.131 324.778 222.96 319.812 222.131 314.95C220.598 305.894 220.806 296.688 219.481 287.609C219.054 284.827 218.881 282.012 218.962 279.198C219.17 273.495 218.236 267.826 218.236 262.146C218.287 255.011 218.935 247.893 220.172 240.866C220.644 238.032 220.829 235.105 222.269 232.536C223.421 230.473 224.124 230.162 226.094 231.499C233.611 236.491 242.283 239.47 251.28 240.151C257.882 240.774 264.484 240.958 270.982 239.253C271.358 239.14 271.759 239.14 272.135 239.253C273.978 240.658 274.842 242.767 275.879 244.703C278.356 249.311 280.822 253.92 283.115 258.678C285.534 263.702 288.253 268.564 290.892 273.472C297.805 286.33 302.955 299.972 308.025 313.579C308.543 314.996 309.108 316.39 309.695 317.784C311.06 320.986 311.791 324.421 311.85 327.9C311.93 335.712 311.043 343.455 310.698 351.243C310.34 360.011 309.246 368.722 308.946 377.49C308.785 382.271 308.773 387.041 308.624 391.811C306.63 393.067 298.565 393.182 296.63 392.007C293.173 389.898 292.689 386.626 293.311 383.078C293.678 380.881 293.843 378.656 293.807 376.43C293.807 370.749 294.129 365.069 294.164 359.401C294.224 351.936 293.874 344.474 293.116 337.049C292.807 334.916 292.653 332.763 292.655 330.608C292.931 324.052 290.615 318.395 286.79 313.325C284.486 310.284 282.181 307.288 279.635 304.454C277.089 301.62 275.153 298.175 272.803 295.098C268.309 289.222 263.92 283.254 259.472 277.343C253.838 269.854 248.734 262.031 243.837 254.058C243.414 253.354 243.029 252.627 242.685 251.881C242.685 252.307 242.87 252.618 242.881 252.952C244.667 265.626 244.494 278.3 244.54 290.973C244.54 297.08 243.388 303.094 242.835 309.155C242.132 316.655 241.533 324.133 240.992 331.668L239.574 351.451C239.356 354.458 239.482 357.476 239.459 360.484C239.459 365.265 239.459 370.058 239.459 374.84C239.517 380.209 240.104 385.566 239.759 390.97C239.804 391.558 239.92 392.138 240.104 392.698C239.909 393.724 239.044 393.585 238.411 393.528C234.835 393.36 231.297 392.717 227.891 391.615C226.707 391.252 225.657 390.546 224.873 389.587Z" fill="#66AFAB"/>
<path d="M342.011 168.199H342.437C342.632 168.158 342.836 168.19 343.008 168.29C343.18 168.39 343.309 168.551 343.371 168.74C344.004 171.045 345.214 173.349 345.076 175.884C344.886 176.384 344.516 176.795 344.039 177.036C340.179 179.259 336.746 182.14 332.874 184.352C328.517 186.783 323.793 188.488 318.887 189.399C312.101 190.701 306.547 187.521 301.8 183.165C295.988 177.881 290.595 172.153 285.67 166.033C284.403 164.431 282.732 163.187 281.43 161.585C282.951 163.383 284.541 165.099 286.039 166.908C286.799 167.842 287.905 168.613 287.848 170.031C286.477 170.595 285.993 169.385 285.44 168.671C283.838 166.609 281.787 164.973 280.117 162.979C279.587 162.369 279.425 162.657 279.345 163.256C279.02 166.253 278.411 169.212 277.524 172.093C276.103 177.273 274.968 182.527 274.125 187.832C273.89 189.187 273.359 190.473 272.57 191.599C270.565 194.434 268.514 197.233 266.475 200.045C264.967 202.216 262.738 203.784 260.184 204.469C256.463 205.494 252.695 206.381 249.008 207.545C247.992 207.834 246.922 207.878 245.886 207.672C243.222 207.225 240.519 207.062 237.821 207.188C235.288 206.79 232.932 205.643 231.058 203.893C228.384 201.3 227.947 197.994 228.615 194.618C229.83 187.465 230.313 180.208 230.055 172.957C229.841 169.444 229.371 165.952 228.649 162.507C228.649 162.254 228.73 161.631 228.062 161.816C227.497 167.496 226.99 173.176 226.38 178.833C226.13 180.12 225.692 181.362 225.078 182.52C223.885 185.436 222.427 188.236 220.723 190.885C219.213 193.32 216.964 195.209 214.305 196.275C211.645 197.34 208.714 197.527 205.94 196.807C202.654 195.903 199.454 194.712 196.377 193.247C196.17 193.033 196.038 192.759 196 192.463C195.963 192.168 196.022 191.869 196.17 191.611C197.032 189.348 198.068 187.157 199.269 185.055C200.859 182.658 201.954 182.382 204.489 183.764C205.761 184.256 207.066 184.66 208.394 184.974C208.118 185.965 208.118 185.931 207.162 186.046C205.802 186.196 204.661 185.424 203.256 185.078C205.468 187.382 208.187 187.175 209.904 184.801C212.775 180.723 215.063 176.263 216.701 171.552C219.086 165.03 221.206 158.417 224.767 152.356C225.919 150.455 227.532 149.073 228.995 146.872C227.843 148.381 226.829 149.269 225.93 150.329C225.539 150.766 225.066 151.481 224.49 150.444C225.289 148.137 226.909 146.205 229.041 145.017C229.556 144.697 230.175 144.593 230.766 144.727C231.357 144.86 231.871 145.221 232.198 145.731C235.165 148.653 238.774 150.84 242.738 152.116C246.701 153.393 250.908 153.724 255.023 153.082C259.087 152.743 262.996 151.362 266.371 149.073C267.342 148.295 268.258 147.452 269.114 146.55L269.713 145.881C270.761 144.844 270.519 143.174 271.579 142.148C272.721 142.361 273.893 142.361 275.036 142.148C283.965 141.388 290.751 144.902 295.924 152.138C301.098 159.373 307.1 165.825 312.389 172.876C315.534 177.093 317.424 177.612 322.401 175.918C325.831 174.807 329.174 173.444 332.402 171.84C335.144 170.63 337.99 169.685 340.663 168.314C340.863 168.191 341.089 168.117 341.323 168.097C341.557 168.077 341.793 168.112 342.011 168.199Z" fill="#66AFAB"/>
<path d="M242.559 252.675C242.478 251.892 241.119 251.004 242.006 250.544C242.893 250.083 243.031 251.604 243.423 252.26C247.052 258.424 251.004 264.358 255.071 270.223C261.662 279.728 269.036 288.657 275.695 298.082C278.944 302.691 282.735 306.815 286.065 311.343C289.394 315.871 292.471 320.446 292.978 326.229C293.185 328.442 293.173 330.677 293.369 332.889C294.325 342.206 294.775 351.567 294.717 360.933C294.591 367.408 294.326 373.871 294.337 380.347C294.337 382.086 293.565 383.734 293.496 385.543C293.358 389.057 296.353 392.594 300.029 392.329C302.829 392.122 305.663 392.479 308.44 391.788C308.993 391.317 309.676 391.024 310.398 390.947C312.242 390.44 312.783 389.702 312.587 387.847C311.991 381.137 312.434 374.375 313.901 367.799C314.311 366.21 314.543 364.579 314.592 362.937C314.477 357.568 315.744 352.384 316.562 347.153C318.371 335.735 318.233 324.501 314.765 313.325C312.852 307.161 309.811 301.515 307.299 295.628C303.981 287.862 300.701 280.074 297.459 272.262C293.3 262.215 288.334 252.514 284.187 242.444C283.693 241.301 283.273 240.127 282.931 238.93C283.115 238.169 281.778 237.006 283.53 236.625C284.834 238.723 285.897 240.96 286.698 243.297C295.766 264.035 304.868 284.774 313.797 305.652C319.143 318.118 320.238 331.207 318.533 344.56C317.277 354.296 315.848 364.02 314.592 373.756C313.928 379.295 313.747 384.881 314.051 390.451C314.12 391.834 313.993 392.755 312.288 392.675C311.781 392.675 311.274 392.974 310.755 392.986C309.5 392.986 309.603 393.677 309.903 394.541C310.476 395.875 311.435 397.007 312.657 397.79C317.899 401.466 323.867 403.344 330.02 404.761C332.946 405.441 335.907 406.005 338.845 406.651C339.417 406.785 339.979 406.958 340.527 407.169C342.14 407.722 343.742 408.471 343.8 410.384C343.857 412.296 342.428 413.506 340.689 414.255C337.866 415.635 334.871 416.627 331.782 417.204C329.009 417.469 326.213 417.376 323.464 416.928C316.896 416.133 310.341 415.211 303.796 414.243C298.243 413.425 295.524 410.441 295.121 404.807C294.971 402.848 295.017 400.878 294.925 398.908C294.925 397.94 295.328 396.823 294.107 396.12C293.68 395.878 293.842 395.267 294.199 394.91C294.913 394.184 295.616 394.576 296.307 395.002C297.056 395.751 296.837 396.719 296.86 397.606C296.756 400.36 296.907 403.118 297.31 405.844C298.093 409.692 299.718 411.49 303.566 412.181C311.055 413.517 318.602 414.405 326.16 415.223C330.694 415.706 335.269 414.806 339.283 412.642C339.398 412.584 339.525 412.55 339.64 412.48C340.424 411.997 341.392 411.593 341.368 410.522C341.345 409.45 340.216 409.116 339.318 408.69C338.95 408.553 338.557 408.494 338.165 408.517C331.252 406.916 324.132 405.913 317.553 402.964C315.55 402.026 313.624 400.931 311.792 399.691C310.317 398.691 309.177 397.27 308.52 395.613C308.381 395.066 308.036 394.593 307.558 394.293C307.08 393.993 306.504 393.888 305.951 394C302.883 394.674 299.686 394.462 296.734 393.389C295.478 392.742 294.437 391.745 293.738 390.517C293.038 389.29 292.71 387.886 292.793 386.476C292.874 380.519 293.058 374.563 293.254 368.606C293.565 358.651 293.093 348.708 292.54 338.765C292.309 334.513 292.067 330.273 291.388 326.091C290.713 321.808 288.952 317.77 286.272 314.362C275.073 299.614 263.344 285.27 252.721 269.704C252.366 271.808 252.269 273.948 252.433 276.076C251.996 284.565 251.116 293.026 249.794 301.423C248.258 312.945 247.014 324.528 246.061 336.173C244.748 352.833 244.183 369.528 244.483 386.234C244.483 388.273 243.792 390.44 245.232 392.456C245.635 392.997 244.84 394.403 243.561 394.518C242.789 394.576 242.006 394.518 241.257 394.518C239.966 395.198 238.837 393.942 237.581 394.242C234.212 393.983 230.87 393.44 227.592 392.617C226.948 392.518 226.345 392.238 225.852 391.811C225.522 391.533 225.266 391.176 225.109 390.773C224.952 390.371 224.899 389.935 224.954 389.506C227.56 390.906 230.384 391.857 233.307 392.318C235.554 392.594 237.823 392.732 240.082 392.928C240.412 392.604 240.842 392.401 241.303 392.352C241.731 392.3 242.122 392.086 242.397 391.753C242.671 391.421 242.807 390.996 242.778 390.566C242.835 388.792 243.112 387.041 243.1 385.266C243.1 379.886 243.1 374.505 243.1 369.136C242.974 359.55 243.538 349.999 244.045 340.447C244.529 331.368 245.335 322.277 246.453 313.244C246.972 308.97 248.101 304.73 248.389 300.421C248.838 293.508 250.313 286.814 250.336 279.878C250.214 276.078 250.403 272.275 250.9 268.506C250.944 268.081 250.903 267.652 250.781 267.242C250.658 266.833 250.456 266.452 250.186 266.121C247.882 262.664 246.061 258.816 243.711 255.337C243.16 254.531 242.769 253.628 242.559 252.675Z" fill="#3E8080"/>
<path d="M269.887 146.48C266.165 151.089 260.934 152.725 255.427 153.589C251.774 154.212 248.031 154.083 244.43 153.21C240.828 152.336 237.442 150.736 234.481 148.508C233.436 147.721 232.468 146.838 231.589 145.869C230.725 144.959 230.033 144.717 228.927 145.593C227.224 146.924 225.812 148.59 224.779 150.49C224.273 152.552 222.948 154.234 222.187 156.181C219.145 164.062 215.746 171.805 212.486 179.605C211.599 181.725 210.758 183.995 208.522 185.216C207.092 185.414 205.638 185.095 204.421 184.317C202.059 182.946 201.045 183.107 199.72 185.527C198.224 187.884 197.119 190.468 196.448 193.177C196.642 193.866 196.999 194.497 197.488 195.018C197.977 195.54 198.585 195.936 199.259 196.173C201.563 197.164 203.626 198.477 205.803 199.699C210.216 202.107 214.583 201.68 218.88 199.365C219.797 198.817 220.537 198.017 221.012 197.06C221.623 195.98 222.336 194.961 223.143 194.018C223.662 193.419 224.215 192.866 225.137 193.373C223.984 198.858 218.143 203.224 212.232 203.017C209.285 202.858 206.406 202.073 203.787 200.713C200.246 198.965 196.81 197.011 193.498 194.86C193.291 194.703 193.112 194.512 192.968 194.295C187.542 187.117 180.893 181.022 174.983 174.282C174.568 173.821 174.222 173.372 173.347 173.533C170.259 174.086 168.243 172.865 166.849 169.858C165.892 167.807 165.616 165.468 164.233 163.509C163.507 163.82 163.542 164.408 163.623 164.972C163.703 165.537 163.623 166.125 162.954 166.125C162.125 166.217 162.067 165.502 161.998 164.972C161.886 164.421 161.91 163.85 162.069 163.31C162.227 162.77 162.516 162.276 162.908 161.873C166.618 158.635 170.731 156.193 175.928 157.691C179.972 158.843 183.44 161.297 183.451 165.756C183.451 168.913 185.203 169.811 187.115 171.102C191.509 174.074 195.906 177.039 200.307 179.997C201.752 180.755 203.082 181.713 204.259 182.842C205.907 184.767 207.647 184.329 208.937 182.117C213.143 174.835 215.781 166.873 218.811 159.073C221 153.428 223.42 147.897 228.432 144.095C229.238 143.496 228.685 143.139 228.363 142.689C226.707 140.655 225.427 138.341 224.584 135.857C223.789 133.173 223.8 130.419 225.886 128.506C232.649 122.296 235.264 114.058 237.707 105.659C240.294 96.642 245.403 88.5516 252.431 82.3391C256.049 79.09 264.794 77.9032 269.207 80.0348C270.425 80.5411 271.521 81.303 272.419 82.269C273.317 83.235 273.998 84.3826 274.415 85.6343C275.22 87.9301 276.464 90.0472 278.079 91.8675C280.164 94.5866 282.111 97.4325 280.683 101.189C280.406 101.903 281.155 102.225 281.581 102.56C284.254 104.645 285.268 107.168 284.024 110.486C283.079 113.033 284.174 115.648 284.312 118.229C284.423 119.338 284.396 120.457 284.231 121.559C284.062 122.807 283.425 123.945 282.45 124.742C281.475 125.54 280.234 125.938 278.977 125.856C277.224 125.654 275.448 125.884 273.804 126.525C273.009 126.916 272.917 127.239 272.975 127.873C273.193 130.614 273.193 133.369 272.975 136.111C272.975 136.802 272.975 137.263 273.816 137.136C282.63 135.777 289.105 139.947 294.681 146.077C300.985 152.923 306.715 160.275 311.814 168.06C316.089 174.674 318.116 175.376 325.64 173.026C330.514 171.517 335.272 169.685 339.973 167.715C340.733 167.403 341.724 166.632 342.035 168.245C339.031 169.895 335.87 171.242 332.599 172.266C330.725 172.559 328.905 173.126 327.195 173.948C324.626 174.893 322.08 175.953 319.257 175.929C318.603 175.977 317.946 175.894 317.325 175.684C316.704 175.474 316.13 175.143 315.639 174.708C314.326 173.556 313.485 172.001 312.183 170.86C308.15 166.251 304.74 161.067 300.868 156.274C296.329 150.639 291.997 144.752 285.775 140.765C282.582 138.743 278.736 138.018 275.025 138.738C274.363 138.752 273.729 139.005 273.238 139.449C272.747 139.893 272.433 140.5 272.352 141.157C272.328 141.388 272.254 141.611 272.134 141.81C272.015 142.009 271.853 142.179 271.661 142.309C271.437 143.849 270.836 145.31 269.91 146.561C269.543 145.296 269.595 143.945 270.06 142.713C271.419 136.813 271.212 130.88 270.716 124.923C270.669 122.236 270.234 119.57 269.426 117.008C269.18 116.027 268.66 115.136 267.928 114.439C267.196 113.741 266.281 113.266 265.29 113.067C262.029 112.376 260.739 110.556 260.842 107.756C260.923 105.67 261.914 104.299 263.965 104.127C268.573 103.746 270.878 100.912 272.433 96.9946C273.735 93.6533 274.276 90.3121 272.848 86.8671C270.013 79.9541 261.05 78.6752 254.598 83.5028C248.456 88.1114 244.355 94.2755 241.394 101.269C239.654 105.394 238.548 109.726 237.177 113.943C235.472 119.629 232.343 124.784 228.086 128.921C225.655 131.225 225.402 134.025 227.003 136.986C228.604 139.699 230.484 142.236 232.614 144.556C238.801 151.377 246.728 153.036 255.473 152.252C259.855 151.759 264.009 150.037 267.456 147.287C268.124 146.676 268.85 145.973 269.887 146.48Z" fill="#3E8080"/>
<path d="M225.769 391.926C229.755 392.595 233.684 393.528 237.717 393.885C237.873 394.01 237.983 394.185 238.028 394.38C238.638 400.833 242.982 404.462 248.121 407.239C253.732 410.245 259.814 412.274 266.106 413.241C266.872 413.313 267.644 413.313 268.41 413.241C269.436 413.241 270.392 413.391 270.219 414.82C267.811 416.202 265.092 415.695 262.534 415.972C254.895 416.871 247.21 416.502 239.548 416.375C236.466 416.302 233.389 416.068 230.331 415.672C227.37 415.292 225.884 414.152 225.457 411.179C224.732 406.51 224.581 401.77 225.008 397.065C225.198 395.57 225.221 394.06 225.077 392.56L225.769 391.926Z" fill="#3E8080"/>
<path d="M296.741 393.401C299.887 393.401 303.032 394.265 306.189 393.482C306.468 393.76 306.664 394.111 306.753 394.495C308.827 401.8 314.438 405.291 321.109 407.342C325.902 408.817 330.742 410.234 335.661 411.283C336.658 411.606 337.702 411.754 338.749 411.72C339.394 411.64 340.143 411.571 340.362 410.833C340.581 410.096 339.913 409.681 339.394 409.289C338.876 408.898 338.104 408.886 338.046 408.045C338.302 408 338.563 408 338.818 408.045C340.201 408.46 341.837 408.805 342.056 410.464C342.275 412.124 340.696 412.607 339.487 413.253C333.668 416.352 327.527 416.214 321.225 415.257C316.144 414.497 311.04 413.806 305.935 413.218C298.009 412.308 296.937 409.347 296.361 402.71C296.142 400.187 296.361 397.618 296.361 395.06C296.296 394.48 296.43 393.895 296.741 393.401Z" fill="#3E8080"/>
<path d="M225.092 193.373C223.272 193.569 222.788 195.205 221.993 196.381C220.3 198.864 217.763 200.648 214.853 201.401C211.943 202.153 208.858 201.823 206.174 200.471C203.27 198.961 200.413 197.325 197.556 195.793C196.404 195.182 195.862 194.41 196.404 193.12C197.752 192.832 198.777 193.685 199.86 194.168C202.867 195.459 205.909 196.715 209.25 196.599C214.02 196.438 218.018 194.94 220.472 190.378C222.38 187.169 224.036 183.818 225.427 180.354C226.452 177.404 226.279 174.167 226.579 171.056C226.936 167.761 227.063 164.443 227.65 161.17C227.765 161.17 227.961 161.274 227.973 161.355C229.044 166.609 230.277 171.863 229.54 177.301C229.137 180.446 229.69 183.649 229.033 186.806C228.936 187.381 228.749 187.937 228.48 188.454C227.408 190.101 226.245 191.737 225.092 193.373Z" fill="#069299"/>
<path d="M225.138 392.56C226.463 393.643 225.933 395.129 225.772 396.397C225.264 401.461 225.415 406.569 226.221 411.594C226.241 412.494 226.604 413.354 227.235 413.996C227.867 414.638 228.72 415.015 229.62 415.05C239.704 416.129 249.865 416.299 259.98 415.557C263.09 415.281 266.213 415.027 269.324 414.762C269.715 414.762 270.119 414.762 270.361 414.336C271.386 411.905 270.752 410.649 267.791 410.038C262.284 408.886 256.8 407.676 251.292 406.582C246.096 405.499 242.662 402.192 240.128 397.779C239.194 396.155 239.586 395.36 241.188 395.014C241.914 395.775 241.914 396.858 242.421 397.756C243.371 399.559 244.722 401.12 246.369 402.318C248.017 403.517 249.918 404.321 251.926 404.669C256.926 405.649 261.846 407.054 266.904 407.803C268.144 407.948 269.351 408.299 270.476 408.84C272.457 409.866 272.78 411.398 272.78 413.553C272.722 416.456 270.937 416.226 269.047 416.421C256.589 417.631 244.051 417.781 231.567 416.871C226.578 416.56 225.334 415.488 224.654 410.488C224.034 405.279 223.961 400.019 224.435 394.795C224.447 393.931 224.251 393.021 225.138 392.56Z" fill="#3E8080"/>
<path d="M241.187 394.922C239.263 395.429 240.035 396.581 240.588 397.618C241.9 400.035 243.77 402.104 246.042 403.653C248.314 405.202 250.924 406.186 253.653 406.524C258.331 407.261 262.974 408.356 267.617 409.324C268.457 409.474 269.259 409.787 269.979 410.245C272.364 411.847 272.422 412.296 270.36 414.29C268.7 413.034 266.765 413.99 264.944 413.598C257.467 411.985 250.231 409.808 244.021 405.199C240.3 402.434 237.419 398.989 237.719 393.885C239.044 393.366 240.023 394.576 241.175 394.634C241.202 394.676 241.218 394.726 241.22 394.776C241.222 394.827 241.21 394.877 241.187 394.922Z" fill="#24484B"/>
<path d="M283.538 236.637C282.455 237.248 283.688 238.089 283.33 238.78C281.614 237.72 281.303 236.925 282.178 235.9C282.295 236.058 282.464 236.172 282.655 236.22C282.846 236.268 283.048 236.249 283.227 236.165L283.538 236.637Z" fill="#2446A4"/>
<path d="M282.214 235.9C281.558 237.271 282.998 237.801 283.366 238.78C287.491 249.369 292.687 259.519 297.1 269.969C301.709 280.788 306.006 291.722 311.03 302.345C313.846 308.42 315.953 314.799 317.309 321.356C318.592 327.986 318.791 334.78 317.897 341.473C317.01 349.538 315.662 357.488 314.705 365.53C313.937 371.805 313.261 378.089 312.678 384.379C312.66 384.888 312.734 385.395 312.896 385.877C313.945 390.359 313.115 391.454 308.484 391.788C307.937 389.695 307.8 387.515 308.08 385.37C308.507 373.33 309.636 361.336 310.385 349.33C310.846 341.818 311.687 334.352 311.376 326.76C311.28 324.464 310.813 322.2 309.993 320.054C306.295 310.261 302.631 300.467 298.587 290.777C294.151 280.201 288.436 270.223 283.217 260.015C280.14 254.012 277.099 247.998 273.85 242.075C273.354 241.177 272.248 240.658 272.248 239.472C272.904 239.046 273.649 238.777 274.426 238.688C274.604 238.23 274.895 237.824 275.271 237.508C275.648 237.192 276.098 236.975 276.58 236.879C278.47 236.522 280.037 235.105 282.064 235.209L282.214 235.9Z" fill="#069299"/>
<path d="M242.556 252.676C245.068 256.812 247.557 260.948 250.091 265.062C250.607 265.763 250.975 266.561 251.173 267.409C251.371 268.257 251.395 269.136 251.243 269.993C250.785 273.495 250.627 277.029 250.771 280.558C250.771 285.973 249.619 291.216 249.25 296.55C248.616 306.09 246.439 315.411 245.794 324.963C245.068 335.805 244.353 346.635 243.87 357.488C243.42 367.328 243.87 377.156 243.547 386.972C243.547 388.47 243.397 389.968 243.363 391.454C243.363 393.54 241.369 392.975 239.987 393.01C239.526 392.572 238.835 392.295 238.973 391.466C239.676 385.313 238.835 379.16 238.812 373.031C238.812 364.044 238.639 355.057 239.295 346.093C240.079 335.182 240.978 324.294 241.911 313.406C242.913 301.793 244.745 290.236 243.904 278.53C243.328 270.465 243.962 262.4 242.441 254.439C242.277 253.855 242.318 253.233 242.556 252.676Z" fill="#069299"/>
<path d="M223.628 337.141C223.628 334.664 223.628 332.175 223.628 329.698C224.169 332.149 224.169 334.689 223.628 337.141Z" fill="#5B7193"/>
<path d="M273.067 86.4067C274.911 89.483 274.392 92.6745 273.413 95.8199C272.786 97.8147 271.832 99.6914 270.59 101.373C269.892 102.313 268.988 103.081 267.948 103.618C266.907 104.155 265.758 104.447 264.587 104.473C262.94 104.588 261.811 105.141 261.419 106.777C261.178 107.593 261.175 108.46 261.412 109.277C261.649 110.094 262.115 110.826 262.755 111.386C263.692 112.107 264.824 112.528 266.005 112.595C266.654 112.633 267.279 112.853 267.809 113.23C268.339 113.607 268.752 114.126 269 114.727C270.241 117.02 270.968 119.556 271.132 122.158C271.713 127.164 271.829 132.213 271.477 137.24C271.108 140.339 270.573 143.416 269.876 146.458C267.445 147.183 265.786 149.154 263.55 150.271C259.424 152.265 254.851 153.154 250.277 152.852C244.824 152.838 239.53 151.01 235.23 147.656C234.04 146.859 233.008 145.847 232.188 144.672C232.868 143.957 233.652 144.292 234.401 144.441C239.448 145.382 244.642 145.173 249.598 143.831C252.743 143.059 254.978 140.662 256.603 137.874C257.386 136.514 257.951 135.028 258.723 133.657C259.956 131.626 260.532 129.264 260.37 126.894C260.38 125.514 260.511 124.137 260.762 122.781C261.002 118.906 260.207 115.036 258.458 111.57C256.419 107.077 258.032 102.802 262.583 101.097C268.608 98.7925 271.097 94.1839 272.192 88.2963C272.295 87.605 272.019 86.6717 273.067 86.4067Z" fill="#24484B"/>
<path d="M279.106 162.83C279.678 163.448 280.307 164.011 280.984 164.512C281.445 164.764 281.814 165.158 282.035 165.634C282.257 166.111 282.321 166.646 282.217 167.162C281.445 173.66 281.537 180.216 281.065 186.749C280.707 191.53 281.572 196.277 281.445 201.058C281.432 201.977 281.211 202.88 280.798 203.701C280.385 204.521 279.79 205.237 279.06 205.794C277.447 207.027 275.601 207.92 273.633 208.421C267.7 210.057 261.639 210.137 255.556 210.034C254.321 209.88 253.069 209.97 251.869 210.299C250.636 210.771 249.749 209.654 248.597 209.492C245.025 208.985 241.338 208.72 238.089 206.854C239.815 206.502 241.594 206.502 243.32 206.854C248.274 208.133 252.618 205.575 257.249 204.757C259.391 204.456 261.434 203.665 263.219 202.443C265.004 201.222 266.482 199.605 267.538 197.717C268.588 195.904 269.823 194.205 271.225 192.648C273.967 189.64 273.818 185.735 274.682 182.209C275.483 177.978 276.498 173.79 277.723 169.662C278.174 168.029 278.478 166.36 278.634 164.673C278.668 164.016 278.587 163.348 279.106 162.83Z" fill="#069299"/>
<path d="M271.627 142.252C272.376 138.507 272.779 138.069 276.581 137.989C280.762 137.891 284.843 139.275 288.103 141.895C295.488 147.471 300.27 155.225 306.031 162.15C308.266 164.823 310.259 167.749 312.425 170.514C313.261 171.91 314.324 173.156 315.571 174.201C318.013 176.056 320.652 175.526 323.232 174.697C325.813 173.867 328.014 172.934 330.399 172.058C331.125 171.793 331.885 171.425 332.542 172.22C331.701 173.372 330.238 173.372 329.085 173.902C326.243 175.251 323.286 176.343 320.248 177.162C319.085 177.501 317.849 177.501 316.686 177.162C315.523 176.823 314.481 176.16 313.681 175.25C310.144 171.528 307.69 166.943 304.164 163.256C300.108 159.027 296.94 154.119 293.149 149.683C291.463 147.585 289.343 145.874 286.935 144.669C284.527 143.465 281.888 142.793 279.197 142.701C277.077 142.609 274.899 142.263 272.825 143.127C272.019 143.508 272.019 142.586 271.627 142.252Z" fill="#069299"/>
<path d="M344.834 176.229C345.226 177.577 345.48 178.649 343.463 179.029C342.159 179.46 340.948 180.133 339.892 181.011C333.912 184.905 327.748 188.43 320.812 190.378C318.042 191.166 315.127 191.303 312.295 190.78C309.463 190.256 306.791 189.085 304.486 187.359C300.315 184.522 296.62 181.042 293.54 177.047C292.388 175.503 290.971 174.098 289.68 172.634C289.127 171.736 288.24 171.113 287.664 170.238C286.708 167.933 284.749 166.436 283.274 164.546C282.548 163.613 281.684 162.795 280.97 161.873C280.67 161.516 280.048 161.02 280.544 160.56C281.039 160.099 281.465 160.767 281.776 161.113C283.943 163.486 286.189 165.79 288.206 168.279C292.49 173.508 297.179 178.393 302.227 182.889C306.836 187.013 312.101 190.182 318.577 188.972C323.635 188.137 328.49 186.355 332.887 183.718C336.343 181.575 339.696 179.305 343.106 177.105C343.666 176.781 344.243 176.489 344.834 176.229Z" fill="#94B2F3"/>
<path d="M208.476 185.159C211.275 182.013 212.531 178.062 214.179 174.305C217.37 167.047 219.94 159.489 223.511 152.414C223.857 151.723 224.318 151.101 224.733 150.444C225.954 150.294 226.219 149.05 227.037 148.405C227.968 147.416 229.008 146.534 230.136 145.778C229.833 146.797 229.25 147.711 228.454 148.416C224.756 152.322 222.762 157.127 220.804 162.012C218.062 168.867 216.195 176.08 212.174 182.417C211.552 183.408 210.849 184.352 210.169 185.32C209.711 185.858 209.147 186.296 208.511 186.606C207.876 186.916 207.184 187.091 206.478 187.122C205.772 187.152 205.067 187.036 204.408 186.782C203.748 186.527 203.148 186.14 202.646 185.643C202.415 185.389 202.219 185.101 202.415 184.779C202.486 184.665 202.581 184.568 202.692 184.494C202.804 184.42 202.93 184.371 203.062 184.351C203.195 184.33 203.33 184.338 203.459 184.374C203.587 184.41 203.707 184.473 203.809 184.56C204.85 185.258 206.071 185.638 207.323 185.654C207.761 185.62 208.234 185.677 208.476 185.159Z" fill="#94B2F3"/>
<path d="M228.305 157.749C230.114 158.428 230.472 160.053 230.863 161.378C233.138 169.535 233.891 178.042 233.087 186.472C232.833 189.537 232.949 192.625 232.926 195.689C232.926 200.655 234.734 203.075 239.597 204.457C240.069 204.596 240.841 204.457 240.657 205.241C240.472 206.024 239.816 205.598 239.32 205.506C233.559 204.354 231.255 201.496 231.439 195.632C231.566 191.184 231.854 186.737 232.085 182.29C232.427 175.344 231.649 168.388 229.78 161.689C229.388 160.41 227.971 159.569 228.305 157.749Z" fill="#E4EBEB"/>
<path d="M273.871 237.501C266.965 239.768 259.645 240.488 252.429 239.61C244.683 238.812 237.146 236.618 230.181 233.135C224.628 230.346 223.268 227.961 224.42 221.855C225.572 215.748 226.932 209.596 228.211 203.478C228.211 203.19 228.407 202.902 228.579 202.326C233.13 208.317 239.894 208.893 246.277 210.287C252.66 211.681 259.192 211.14 265.668 211.059C266.961 211.129 268.202 211.599 269.217 212.404C270.233 213.208 270.973 214.309 271.336 215.553C272.488 221.371 274.044 227.155 273.744 233.169C273.595 234.667 273.986 236.061 273.871 237.501Z" fill="#EDC36F"/>
<path d="M273.871 237.501C273.289 236.791 273.004 235.883 273.076 234.967C273.525 228.33 272.028 221.901 270.622 215.495C270.103 213.191 267.891 211.866 265.587 211.117C267.626 210.783 269.654 210.356 271.716 210.137C275.251 209.727 278.554 208.169 281.118 205.702C282.017 212.142 283.71 218.375 284.275 224.724C284.501 227.137 284.532 229.564 284.367 231.983C284.275 233.365 283.1 234.287 282.063 235.209C280.231 236.207 278.275 236.954 276.244 237.432C275.369 237.628 275.219 238.584 274.424 238.688C274.389 238.216 274.482 237.697 273.871 237.501Z" fill="#EBAB4C"/>
<path d="M287.663 170.238C288.145 170.479 288.573 170.815 288.92 171.228C289.266 171.64 289.525 172.119 289.679 172.635C288.93 171.897 287.974 171.344 287.663 170.238Z" fill="#004DDC"/>
<path d="M338.05 408.045C338.902 408.61 340.031 408.713 340.7 409.623C341.368 410.534 341.575 411.49 340.066 411.928C339.217 412.28 338.284 412.376 337.382 412.204C330.664 410.418 323.774 409.128 317.357 406.443C312.149 404.243 307.99 400.786 306.423 394.991C306.311 394.486 306.234 393.974 306.192 393.459C306.431 393.353 306.69 393.303 306.951 393.312C307.211 393.321 307.467 393.388 307.698 393.508C307.929 393.629 308.13 393.8 308.287 394.009C308.443 394.217 308.55 394.459 308.6 394.714C309.596 397.303 311.553 399.408 314.062 400.59C320.422 404.174 327.392 405.81 334.467 407.169C335.665 407.423 336.851 407.757 338.05 408.045Z" fill="#24484B"/>
<path d="M273.067 86.4063C272.502 88.2498 272.514 90.2085 271.915 92.0635C270.753 95.0574 268.916 97.7426 266.546 99.9097C265.931 100.404 265.209 100.748 264.437 100.912C262.636 101.466 261.004 102.465 259.69 103.816C258.929 104.67 258.418 105.718 258.215 106.845C258.011 107.971 258.123 109.132 258.538 110.199C258.913 111.449 259.399 112.664 259.99 113.828C261.684 117.284 261.453 120.925 261.142 124.578C261.142 124.773 260.992 124.969 261.015 125.154C261.707 129.901 259.46 133.806 257.34 137.712C256.341 139.769 254.824 141.53 252.936 142.822C251.049 144.113 248.858 144.889 246.579 145.075C241.81 145.75 236.961 145.621 232.234 144.694C229.989 142.501 228.089 139.98 226.6 137.217C224.78 133.829 224.976 131.099 227.752 128.506C233.744 122.965 236.278 115.671 238.421 108.194C240.726 100.129 244.32 92.7432 250.139 86.6253C254.425 82.0972 259.356 78.779 266.062 80.4957C269.322 81.3598 271.88 83.0651 273.067 86.4063Z" fill="#346768"/>
<path d="M166.47 160.86C170.595 157.841 177.531 157.657 180.722 162.553C181.679 164.028 183.188 165.664 181.345 167.634C181.022 167.992 181.54 168.303 181.782 168.568C182.831 169.737 184.084 170.706 185.481 171.425C190.516 174.121 194.698 178.096 199.572 180.942C200.724 181.622 200.989 182.336 199.929 183.361C198.387 185.051 197.158 187.002 196.3 189.122C192.843 185.401 188.073 183.281 184.617 179.513C180.596 175.123 176.552 170.757 172.703 166.217C171.337 164.545 169.678 163.136 167.807 162.058C167.288 161.735 166.447 161.735 166.47 160.86Z" fill="#E4EBEB"/>
<path d="M273.459 99.3106C274.382 97.2215 274.931 94.9873 275.084 92.7087C275.084 92.2248 275.211 91.6603 275.614 91.5566C276.248 91.3146 276.225 92.0635 276.466 92.3861C277.579 93.7533 278.473 95.2846 279.116 96.9257C279.359 97.4244 279.492 97.9695 279.506 98.5242C279.52 99.0788 279.415 99.6299 279.197 100.14C278.448 101.534 279.013 102.445 280.015 103.366C280.741 104.023 281.513 104.622 282.216 105.302C282.629 105.631 282.939 106.072 283.109 106.573C283.278 107.073 283.3 107.612 283.172 108.125C282.563 110.19 282.39 112.36 282.665 114.496C282.792 116.121 282.078 116.57 280.58 116.363C279.505 116.116 278.475 115.704 277.526 115.141C277.031 114.911 276.374 114.381 276.04 115.211C275.706 116.04 276.409 116.178 276.927 116.443C278.31 117.311 279.904 117.782 281.536 117.803C282.608 117.711 282.919 118.102 282.942 119.093C283.03 120 282.898 120.914 282.557 121.759C282.216 122.603 281.676 123.353 280.983 123.944C276.374 123.46 273.655 121.144 272.526 116.651C272.134 114.797 271.614 112.972 270.971 111.189C269.288 107.134 270.637 103.689 272.803 100.336C273.063 100.023 273.284 99.6784 273.459 99.3106Z" fill="#E4EBEB"/>
<path d="M166.469 160.859C170.11 162.334 172.391 165.307 174.926 168.141C181.067 175.054 186.816 182.324 194.996 186.967C196.079 187.59 195.711 188.523 196.298 189.122C195.826 190.666 195.353 192.198 194.87 193.731C194.87 193.846 194.708 193.927 194.639 193.996L171.596 168.648C171.181 169.973 172.091 170.434 172.564 171.16C172.794 171.528 173.232 171.909 172.886 172.312C172.541 172.715 172.045 172.611 171.607 172.508C171.062 172.392 170.55 172.156 170.107 171.818C169.665 171.479 169.303 171.045 169.05 170.549C167.805 167.968 166.745 165.353 165.489 162.76C164.925 161.643 165.731 161.263 166.469 160.859Z" fill="#94C5C1"/>
<path d="M273.458 99.3105C272.925 100.89 272.282 102.429 271.534 103.919C271.071 104.782 270.795 105.733 270.724 106.709C270.652 107.686 270.787 108.667 271.119 109.588C271.776 112.042 272.617 114.462 273.124 116.95C273.896 120.695 276.684 122.181 279.83 123.345C280.233 123.494 280.763 123.345 280.982 123.852C278.493 124.923 275.74 124.336 273.193 125.119C272.318 125.384 272.364 124.439 272.341 123.967C272.272 122.193 271.834 120.51 271.603 118.736C271.482 116.958 270.781 115.269 269.607 113.929C268.433 112.588 266.851 111.67 265.105 111.316C263.423 110.89 262.133 109.991 262.282 108.102C262.432 106.212 263.826 105.797 265.497 105.647C266.576 105.569 267.621 105.235 268.545 104.672C269.468 104.109 270.245 103.333 270.808 102.41C271.472 101.207 272.374 100.153 273.458 99.3105Z" fill="#94C5C1"/>
<path d="M315.602 174.201C313.886 173.545 313.137 172.058 312.457 170.526C313.648 171.622 314.703 172.856 315.602 174.201Z" fill="#142F9D"/>
<path d="M277.064 100.947C277.064 100.947 277.064 101.12 277.064 101.131C276.186 101.472 275.414 102.04 274.827 102.777C274.24 103.514 273.859 104.393 273.723 105.325C273.642 105.613 273.193 105.325 273.101 104.945C272.743 103.47 274.979 100.498 276.476 100.429C276.834 100.371 277.041 100.498 277.064 100.947Z" fill="#5570D6"/>
<path d="M277.502 105.959C277.583 106.535 276.857 106.811 276.166 106.927C275.474 107.042 275.232 106.247 275.152 105.774C275.122 105.612 275.127 105.446 275.167 105.286C275.207 105.126 275.281 104.977 275.384 104.848C275.486 104.719 275.616 104.614 275.762 104.539C275.909 104.464 276.07 104.422 276.235 104.415C277.111 104.288 277.364 104.841 277.502 105.959Z" fill="#5570D6"/>
<path d="M466.021 118.287H363.409V196.761H466.021V118.287Z" fill="white"/>
<path opacity="0.61" d="M460.362 123.944H369.813V191.852H460.362V123.944Z" fill="#66AFAB"/>
<g opacity="0.61">
<path opacity="0.61" d="M363.04 201.496C397.498 201.358 431.955 200.885 466.412 200.079C469.431 200.01 469.443 195.297 466.412 195.378C431.963 196.146 397.505 196.618 363.04 196.795C360.01 196.795 360.01 201.507 363.04 201.496Z" fill="#66AFAB"/>
<path opacity="0.61" d="M359.938 119.669C360.959 146.161 361.021 172.661 360.122 199.169C360.018 202.199 364.731 202.199 364.823 199.169C365.721 172.684 365.66 146.184 364.638 119.669C364.523 116.651 359.822 116.639 359.938 119.669Z" fill="#66AFAB"/>
<path opacity="0.61" d="M467.885 118.943L468.243 118.194L463.864 117.042C463.864 143.719 463.864 170.399 463.864 197.083C463.864 200.113 468.565 200.113 468.565 197.083C468.565 170.399 468.565 143.719 468.565 117.042C468.565 114.83 465.224 113.678 464.187 115.89L463.818 116.639C462.528 119.358 466.572 121.755 467.885 119.012V118.943Z" fill="#66AFAB"/>
<path opacity="0.61" d="M361.586 120.81C395.967 121.133 430.301 118.851 464.682 118.99C467.712 118.99 467.712 114.3 464.682 114.289C430.301 114.151 395.967 116.432 361.586 116.109C358.556 116.109 358.556 120.775 361.586 120.81Z" fill="#66AFAB"/>
</g>
<path d="M437.849 167.173V177.612C437.803 178.093 437.723 178.571 437.607 179.041C437.412 179.098 437.388 179.306 437.273 179.444C437.003 179.8 436.655 180.088 436.255 180.288C435.856 180.488 435.416 180.593 434.969 180.596H415.728C415.184 180.628 414.643 180.504 414.167 180.239C413.691 179.973 413.301 179.578 413.043 179.098C413.024 179.054 412.992 179.017 412.95 178.992C412.909 178.967 412.861 178.956 412.813 178.96H393.549C393.338 178.979 393.126 178.952 392.927 178.88C392.728 178.809 392.547 178.694 392.397 178.544C392.248 178.395 392.133 178.214 392.061 178.015C391.989 177.816 391.962 177.604 391.982 177.393C391.982 175.964 391.982 174.536 391.982 173.107C391.982 172.531 391.982 171.955 391.982 171.402C391.982 170.019 391.924 168.636 391.982 167.254C391.982 166.609 391.982 165.986 391.982 165.353V161.32C391.966 161.111 391.996 160.902 392.069 160.706C392.141 160.509 392.255 160.331 392.403 160.182C392.55 160.034 392.728 159.919 392.923 159.845C393.119 159.771 393.328 159.74 393.537 159.753H412.502C412.663 159.753 412.721 159.661 412.709 159.511C412.709 158.901 412.709 158.29 412.709 157.668C412.709 157.518 412.709 157.46 412.513 157.46H396.268C395.502 157.503 394.744 157.279 394.125 156.827C393.745 156.554 393.437 156.194 393.226 155.777C393.016 155.359 392.909 154.898 392.915 154.43C392.915 147.993 392.915 141.557 392.915 135.12C392.905 134.919 392.937 134.718 393.01 134.531C393.082 134.343 393.193 134.173 393.335 134.031C393.477 133.889 393.648 133.778 393.835 133.705C394.023 133.633 394.223 133.601 394.424 133.611H400.623C400.764 133.602 400.906 133.627 401.036 133.683C401.166 133.739 401.281 133.825 401.372 133.933C402.052 134.717 402.743 135.489 403.411 136.238C403.489 136.334 403.587 136.41 403.699 136.462C403.811 136.514 403.933 136.54 404.056 136.537H412.456C412.665 136.52 412.875 136.548 413.072 136.62C413.27 136.692 413.449 136.806 413.598 136.954C413.747 137.101 413.862 137.28 413.935 137.476C414.008 137.673 414.038 137.883 414.023 138.093C414.023 138.611 414.023 139.129 414.023 139.636C414.023 139.878 414.103 139.936 414.334 139.936H422.019C422.363 139.918 422.703 140.025 422.976 140.236C423.249 140.447 423.436 140.75 423.505 141.088C423.516 141.215 423.516 141.342 423.505 141.468V148.255C423.505 148.727 423.505 148.658 423.908 148.658H429.865C430.003 148.655 430.14 148.681 430.267 148.735C430.394 148.788 430.508 148.868 430.602 148.969L437.515 155.882C437.619 155.982 437.701 156.102 437.757 156.234C437.812 156.367 437.84 156.51 437.838 156.654C437.849 160.157 437.849 163.671 437.849 167.173ZM415.083 178.879C415.265 178.969 415.468 179.005 415.67 178.983H434.957C435.142 178.997 435.327 178.971 435.5 178.906C435.673 178.841 435.829 178.74 435.959 178.608C436.088 178.476 436.188 178.318 436.249 178.144C436.311 177.97 436.334 177.784 436.317 177.6C436.317 170.941 436.317 164.281 436.317 157.622C436.317 157.288 436.317 157.288 436.006 157.288C434.646 157.288 433.287 157.288 431.927 157.288C431.213 157.264 430.535 156.966 430.035 156.455C429.535 155.944 429.251 155.26 429.243 154.545V150.49C429.243 150.179 429.243 150.167 428.92 150.167H415.624C415.438 150.147 415.249 150.169 415.072 150.232C414.895 150.294 414.735 150.395 414.602 150.528C414.47 150.661 414.368 150.821 414.306 150.998C414.244 151.175 414.222 151.363 414.242 151.55V159.327C414.242 159.707 414.242 159.707 414.61 159.707C414.821 159.688 415.034 159.715 415.234 159.787C415.433 159.859 415.614 159.973 415.765 160.123C415.915 160.272 416.031 160.452 416.104 160.651C416.178 160.85 416.206 161.063 416.189 161.274V163.21C416.189 163.855 416.189 164.5 416.189 165.145C416.189 165.791 415.935 166.413 416.189 167.035C416.189 168.51 416.189 169.984 416.189 171.448C416.189 171.955 416.189 172.45 416.189 172.957C416.189 174.409 416.189 175.872 416.189 177.324C416.221 177.672 416.127 178.021 415.924 178.307C415.721 178.592 415.423 178.795 415.083 178.879ZM410.278 141.48H399.206C398.883 141.48 398.883 141.48 398.883 141.803C398.883 143.784 398.883 145.766 398.883 147.748C398.883 149.96 398.883 152.172 398.883 154.384C398.879 154.814 398.785 155.238 398.607 155.629C398.491 155.894 398.491 155.905 398.768 155.905C403.284 155.905 407.801 155.905 412.317 155.905C412.536 155.905 412.605 155.824 412.605 155.605C412.605 154.315 412.605 153.013 412.605 151.711C412.576 151.044 412.762 150.386 413.135 149.833C413.441 149.435 413.841 149.121 414.301 148.919C414.76 148.718 415.263 148.636 415.762 148.681C417.721 148.681 419.68 148.681 421.638 148.681C421.869 148.681 421.903 148.6 421.903 148.404V144.084C421.903 143.3 421.903 142.505 421.903 141.71C421.903 141.491 421.834 141.422 421.627 141.445C421.481 141.457 421.335 141.457 421.189 141.445L410.278 141.48ZM394.367 146.273V150.755C394.367 151.965 394.367 153.186 394.367 154.396C394.367 154.733 394.481 155.061 394.69 155.326C394.899 155.591 395.191 155.779 395.519 155.859C395.821 155.943 396.141 155.927 396.434 155.815C396.726 155.703 396.975 155.501 397.143 155.237C397.34 154.915 397.432 154.541 397.408 154.165C397.408 149.948 397.408 145.743 397.408 141.491C397.405 141.285 397.444 141.08 397.521 140.888C397.599 140.697 397.714 140.523 397.86 140.377C398.007 140.23 398.18 140.115 398.372 140.037C398.564 139.96 398.769 139.921 398.975 139.924C401.487 139.924 403.999 139.924 406.51 139.924H412.156C412.363 139.924 412.456 139.924 412.456 139.648C412.456 139.187 412.456 138.738 412.456 138.288C412.456 138.058 412.375 137.989 412.156 138C411.442 138.058 410.716 138 410.002 138H403.307C403.183 138.002 403.059 137.976 402.945 137.925C402.832 137.873 402.731 137.796 402.651 137.701C401.959 136.906 401.268 136.122 400.588 135.327C400.522 135.241 400.436 135.172 400.338 135.126C400.24 135.08 400.132 135.058 400.024 135.062H394.678C394.355 135.062 394.344 135.062 394.344 135.385C394.344 137.182 394.344 138.98 394.344 140.777C394.344 142.574 394.413 144.487 394.413 146.273H394.367ZM404.022 171.505H414.299C414.53 171.505 414.622 171.505 414.622 171.194C414.622 169.95 414.622 168.706 414.622 167.461C414.622 167.219 414.541 167.15 414.299 167.15H393.825C393.514 167.15 393.514 167.15 393.514 167.473V171.229C393.514 171.551 393.514 171.551 393.848 171.551L404.022 171.505ZM404.022 173.038H393.779C393.456 173.038 393.456 173.038 393.456 173.349V176.99C393.456 177.358 393.456 177.358 393.825 177.358H414.299C414.541 177.358 414.61 177.289 414.61 177.047C414.61 175.826 414.61 174.605 414.61 173.383C414.61 173.015 414.61 173.015 414.23 173.015L404.022 173.038ZM404.022 165.652H414.299C414.61 165.652 414.622 165.652 414.622 165.33C414.622 164.074 414.622 162.83 414.622 161.574C414.622 161.355 414.541 161.297 414.334 161.297H393.814C393.583 161.297 393.503 161.378 393.503 161.608C393.503 162.841 393.503 164.074 393.503 165.318C393.503 165.652 393.503 165.652 393.837 165.652H404.022ZM435.13 155.767L430.775 151.389C430.717 151.446 430.775 151.527 430.775 151.596V154.442C430.768 154.618 430.799 154.794 430.864 154.958C430.929 155.122 431.027 155.27 431.153 155.394C431.279 155.517 431.429 155.613 431.594 155.676C431.759 155.738 431.935 155.765 432.112 155.755H435.165L435.13 155.767Z" fill="white"/>
<path d="M425.254 160.859H432.904C433.033 160.85 433.161 160.875 433.278 160.93C433.394 160.986 433.494 161.07 433.569 161.176C433.643 161.281 433.688 161.404 433.701 161.532C433.714 161.66 433.693 161.79 433.642 161.908C433.593 162.042 433.506 162.158 433.391 162.243C433.276 162.327 433.139 162.375 432.996 162.38H417.673C417.471 162.38 417.277 162.3 417.135 162.157C416.992 162.015 416.912 161.821 416.912 161.62C416.912 161.418 416.992 161.225 417.135 161.082C417.277 160.939 417.471 160.859 417.673 160.859H425.254Z" fill="white"/>
<path d="M425.257 168.383H417.652C417.451 168.398 417.251 168.333 417.098 168.201C416.944 168.069 416.849 167.882 416.834 167.68C416.819 167.478 416.884 167.279 417.016 167.125C417.148 166.972 417.335 166.877 417.537 166.862H432.826C432.99 166.839 433.157 166.866 433.306 166.94C433.454 167.014 433.576 167.132 433.656 167.277C433.729 167.398 433.768 167.537 433.767 167.678C433.766 167.819 433.725 167.958 433.65 168.078C433.574 168.197 433.467 168.294 433.34 168.356C433.213 168.418 433.071 168.443 432.93 168.429L425.257 168.383Z" fill="white"/>
<path d="M425.255 174.443H417.57C417.424 174.454 417.279 174.419 417.155 174.342C417.031 174.266 416.934 174.152 416.878 174.017C416.811 173.885 416.784 173.736 416.801 173.588C416.817 173.441 416.876 173.302 416.971 173.187C417.062 173.061 417.198 172.975 417.351 172.946C417.47 172.939 417.589 172.939 417.708 172.946H432.801C432.962 172.921 433.127 172.947 433.272 173.022C433.417 173.096 433.534 173.215 433.608 173.36C433.688 173.476 433.733 173.612 433.738 173.753C433.743 173.893 433.707 174.032 433.636 174.153C433.564 174.274 433.46 174.373 433.334 174.436C433.209 174.5 433.068 174.526 432.928 174.512L425.255 174.443Z" fill="white"/>
<path d="M421.938 154.742H426.27C426.439 154.743 426.602 154.8 426.735 154.904C426.867 155.009 426.961 155.154 427.002 155.318C427.043 155.481 427.028 155.654 426.96 155.808C426.893 155.962 426.775 156.09 426.627 156.17C426.49 156.245 426.334 156.281 426.178 156.274H417.652C417.544 156.286 417.436 156.274 417.333 156.24C417.231 156.205 417.137 156.149 417.059 156.074C416.981 155.999 416.921 155.908 416.882 155.807C416.843 155.707 416.826 155.598 416.834 155.491C416.835 155.385 416.858 155.281 416.902 155.185C416.946 155.089 417.01 155.003 417.089 154.933C417.168 154.864 417.262 154.812 417.363 154.781C417.464 154.75 417.57 154.74 417.675 154.753L421.938 154.742Z" fill="white"/>
<path d="M412.699 169.351V169.869C412.699 170.031 412.699 170.123 412.469 170.111H411.524C411.351 170.111 411.282 170.042 411.282 169.869V168.809C411.282 168.648 411.34 168.567 411.513 168.567H412.48C412.642 168.567 412.711 168.637 412.699 168.798V169.351Z" fill="white"/>
<path d="M407.031 169.351V169.927C407.031 170.065 407.031 170.123 406.858 170.111H405.786C405.763 170.115 405.738 170.114 405.716 170.106C405.693 170.099 405.672 170.086 405.655 170.069C405.638 170.053 405.626 170.032 405.618 170.009C405.611 169.986 405.609 169.962 405.613 169.938C405.613 169.547 405.613 169.166 405.613 168.786C405.613 168.648 405.671 168.59 405.821 168.59H406.823C406.973 168.59 407.042 168.659 407.031 168.809V169.374V169.351Z" fill="white"/>
<path d="M408.457 169.339V168.763C408.457 168.637 408.515 168.567 408.642 168.567H409.69C409.817 168.567 409.875 168.637 409.875 168.763V169.915C409.875 170.019 409.875 170.077 409.725 170.077H408.63C408.504 170.077 408.446 170.077 408.457 169.892V169.305V169.339Z" fill="white"/>
<path d="M411.28 175.204C411.28 175.008 411.28 174.824 411.28 174.628C411.28 174.432 411.28 174.443 411.453 174.443H412.582C412.697 174.443 412.755 174.501 412.755 174.616V175.768C412.759 175.792 412.757 175.816 412.75 175.839C412.743 175.862 412.73 175.883 412.713 175.9C412.696 175.916 412.675 175.929 412.653 175.936C412.63 175.944 412.606 175.945 412.582 175.941H411.43C411.315 175.941 411.269 175.941 411.269 175.768C411.269 175.596 411.28 175.4 411.28 175.204Z" fill="white"/>
<path d="M408.457 175.192C408.457 175.054 408.457 174.904 408.457 174.754C408.457 174.604 408.515 174.42 408.757 174.432H409.644C409.806 174.432 409.886 174.501 409.886 174.662C409.886 175.031 409.886 175.388 409.886 175.814C409.886 175.953 409.829 176.033 409.667 176.033H408.653C408.504 176.033 408.446 175.953 408.457 175.803C408.469 175.653 408.457 175.376 408.457 175.192Z" fill="white"/>
<path d="M407.031 175.215C407.031 175.388 407.031 175.549 407.031 175.722C407.031 175.895 406.962 175.976 406.777 175.976H405.844C405.683 175.976 405.625 175.907 405.625 175.757V174.605C405.625 174.466 405.694 174.409 405.832 174.409H406.823C406.973 174.409 407.042 174.466 407.031 174.628C407.019 174.789 407.031 175.031 407.031 175.215Z" fill="white"/>
<path d="M408.457 163.463V162.91C408.457 162.772 408.457 162.691 408.642 162.703H409.679C409.828 162.703 409.886 162.772 409.886 162.91C409.886 163.279 409.886 163.659 409.886 164.062C409.886 164.201 409.828 164.27 409.679 164.27H408.665C408.515 164.27 408.446 164.27 408.457 164.062C408.469 163.855 408.457 163.659 408.457 163.463Z" fill="white"/>
<path d="M412.697 163.486C412.686 163.663 412.686 163.84 412.697 164.016C412.697 164.189 412.628 164.247 412.467 164.247H411.499C411.338 164.247 411.269 164.178 411.269 164.016V162.933C411.269 162.761 411.326 162.691 411.499 162.691H412.467C412.628 162.691 412.697 162.761 412.686 162.922V163.475L412.697 163.486Z" fill="white"/>
<path d="M407.028 163.475V164.063C407.028 164.201 407.028 164.259 406.844 164.247H405.784C405.646 164.247 405.611 164.178 405.611 164.063C405.611 163.682 405.611 163.291 405.611 162.91C405.611 162.749 405.669 162.692 405.83 162.703H406.821C406.982 162.703 407.052 162.703 407.04 162.934C407.028 163.164 407.028 163.291 407.028 163.475Z" fill="white"/>
<path d="M279.105 162.83C278.944 162.484 278.667 162.115 279.105 161.827C279.543 161.539 279.877 162.058 280.165 162.369C282.377 164.742 284.774 166.977 286.732 169.57C286.974 169.869 287.17 170.226 287.631 170.25L287.873 170.376C288.599 171.079 289.256 171.851 290.016 172.508C291.575 174.011 293.016 175.633 294.325 177.358C297.159 180.89 300.462 184.018 304.142 186.656C311.055 191.784 318.359 191.334 325.94 188.154C332.208 185.527 337.693 181.518 343.684 178.407C344.617 177.923 344.513 177.001 344.836 176.229C344.384 173.45 343.579 170.739 342.439 168.164C342.301 167.404 342.128 166.632 342.025 165.86C341.921 165.088 342.509 164.397 342.923 164.834C344.318 166.286 345.654 165.134 346.737 164.754C350.654 163.348 353.028 160.825 353.109 156.228C353.128 152.785 354.439 149.474 356.784 146.953C358 145.56 359.669 144.642 361.496 144.36C364.81 143.992 368.153 143.957 371.474 144.257C371.941 144.251 372.396 144.405 372.764 144.691C373.132 144.978 373.392 145.381 373.502 145.835C373.607 146.101 373.659 146.386 373.653 146.672C373.648 146.958 373.585 147.24 373.469 147.502C373.354 147.764 373.187 148 372.979 148.196C372.771 148.393 372.525 148.546 372.258 148.646C371.67 148.75 371.025 149.096 370.61 148.324C371.14 146.745 370.518 146.238 368.939 146.331C367.165 146.423 365.391 146.331 363.628 146.331C362.373 146.304 361.133 146.61 360.035 147.217C358.936 147.824 358.017 148.711 357.372 149.787C356.038 151.758 355.273 154.058 355.159 156.435C354.883 161.182 353.12 164.788 348.246 166.321C348.123 166.37 348.007 166.436 347.901 166.517C344.594 168.533 344.513 167.749 345.596 172.001C346.276 175.227 346.288 175.238 349.053 173.245C352.509 170.687 355.966 168.083 359.353 165.364C361.658 163.509 362.372 161.009 362.706 158.29C362.706 157.829 362.706 157.368 362.706 156.907C362.936 151.688 365.01 149.522 370.299 149.073C370.432 149.067 370.564 149.09 370.687 149.14C370.81 149.189 370.921 149.265 371.013 149.361C371.416 150.432 370.633 150.755 369.861 151.043C369.136 151.345 368.389 151.592 367.626 151.78C367.167 151.841 366.724 151.992 366.323 152.225C365.922 152.457 365.571 152.766 365.289 153.134C365.008 153.502 364.802 153.922 364.683 154.37C364.564 154.818 364.534 155.285 364.596 155.744C365.114 160.998 362.499 164.569 358.673 167.634C354.848 170.699 351.449 173.695 347.762 176.633C347.225 176.922 346.812 177.398 346.6 177.971C346.388 178.543 346.391 179.173 346.61 179.743C346.829 180.4 347.279 181.403 346.034 181.621C344.79 181.84 344.997 180.78 344.882 179.824L334.755 185.804C330.146 188.534 325.41 191.069 320.099 192.187C312.345 193.823 305.766 191.38 300.12 186.103C294.751 181.08 290.108 175.4 285.142 169.973C284.658 169.455 284.163 168.948 283.437 168.187C282.873 172.796 282.561 177.22 282.446 181.621C282.139 191.174 282.431 200.737 283.322 210.253C283.886 216.014 285.062 221.625 285.834 227.328C286.271 230.6 285.96 233.768 283.184 236.119C282.492 236.672 282.112 236.315 281.836 235.658C281.801 235.345 281.87 235.029 282.031 234.759C284.808 231.844 284.002 228.25 283.714 224.862C283.193 219.511 282.284 214.205 280.995 208.985C280.838 208.161 280.757 207.324 280.753 206.485C276.328 210.529 270.821 210.668 265.521 211.52C256.177 212.073 246.925 211.774 237.869 208.974C234.532 208.133 231.488 206.396 229.066 203.95C228.559 204.02 228.444 204.238 228.398 204.503C227.246 210.633 225.621 216.636 224.584 222.777C223.928 226.671 225.08 229.609 228.536 231.579C234.631 234.952 241.254 237.266 248.123 238.423C256.067 239.981 264.266 239.642 272.054 237.432C272.602 237.213 273.197 237.138 273.782 237.213C273.917 237.25 274.042 237.315 274.149 237.404C274.257 237.493 274.344 237.604 274.405 237.73C274.466 237.855 274.5 237.992 274.504 238.132C274.507 238.271 274.481 238.41 274.427 238.538C274.188 238.912 273.835 239.2 273.42 239.36C273.006 239.519 272.551 239.542 272.123 239.426C261.753 242.225 251.545 241.419 241.302 238.919C238.723 238.488 236.219 237.685 233.871 236.534C230.968 234.828 227.753 233.688 225.091 231.556C224.02 230.692 223.536 230.761 222.983 232.294C220.114 240.301 219.261 248.62 219.123 257.042C218.75 269.792 219.382 282.551 221.013 295.202C221.462 298.439 220.759 301.746 221.37 304.995C222.902 313.13 223.052 321.391 223.501 329.617C223.692 332.094 223.692 334.583 223.501 337.06C223.501 345.298 222.695 353.513 222.66 361.751C222.66 367.097 222.13 372.443 221.842 377.801C221.727 379.817 222.246 381.787 222.038 383.838C221.831 385.889 223.121 387.617 224.446 389.173C221.739 389.368 219.941 387.732 220.298 384.875C220.828 380.635 220.586 376.395 220.771 372.201C221.301 359.758 222.004 347.326 222.004 334.871C222.004 322.416 220.851 310.134 219.699 297.806C218.282 282.828 216.865 267.792 217.96 252.698C218.432 246.177 218.789 239.587 221.105 233.4C222.152 230.847 222.59 228.086 222.384 225.335C222.004 220.634 223.882 216.117 224.769 211.509C225.575 207.395 226.808 203.351 227.361 199.227C227.834 195.678 228.041 192.072 228.513 188.511C228.663 184.732 228.813 180.953 229.043 177.174C229.45 173.064 229.087 168.915 227.972 164.938C227.58 163.728 227.972 162.449 227.684 161.228C227.569 160.836 227.476 160.341 227.972 160.26C228.467 160.18 228.79 160.698 228.882 161.113C229.228 162.703 229.55 164.304 229.758 165.917C231.1 174.946 230.975 184.131 229.389 193.12C227.891 200.897 230.391 204.734 238.076 206.854C242.397 207.914 246.764 208.801 251.142 209.504C253.446 209.873 255.831 209.343 258.193 209.423C263.232 209.65 268.277 209.146 273.171 207.925C274.762 207.517 276.279 206.86 277.665 205.978C278.676 205.409 279.506 204.567 280.063 203.548C280.619 202.53 280.878 201.376 280.81 200.217C280.73 197.475 280.488 194.71 280.499 191.991C280.426 184.922 280.71 177.854 281.352 170.814C281.64 168.233 282.089 165.687 279.543 163.901C279.232 163.671 279.209 163.164 279.105 162.83Z" fill="#3E8080"/>
<path opacity="0.25" d="M371.106 149.338C369.493 149.799 367.857 150.179 366.29 150.743C365.544 150.979 364.887 151.436 364.406 152.053C363.925 152.67 363.642 153.419 363.594 154.2C363.375 155.824 363.341 157.449 363.203 159.062C362.88 162.83 360.564 165.272 357.718 167.369C354.158 169.996 350.598 172.623 347.084 175.307C346.012 176.125 345.644 175.941 345.551 174.662C345.494 173.833 345.344 173.003 345.24 172.162C349.801 169.681 353.904 166.439 357.373 162.576C359.026 160.603 360.155 158.245 360.656 155.721C361.181 153.822 362.086 152.05 363.318 150.513C363.687 149.963 364.207 149.531 364.816 149.269C366.676 148.354 368.756 147.982 370.818 148.197C371.175 148.819 371.798 148.508 372.293 148.623L371.106 149.338Z" fill="#66AFAB"/>
<path d="M370.781 148.186C369.387 148.474 367.981 148.785 366.587 149.061C363.499 149.661 361.979 152.264 361.414 154.903C360.147 160.664 356.644 164.673 352.197 168.084C350.434 169.443 348.556 170.63 346.77 171.966C346.229 172.37 345.802 172.589 345.215 172.151C344.062 168.199 344.062 168.199 347.577 166.102C347.832 165.898 348.115 165.731 348.418 165.606C353.118 164.293 354.409 160.733 354.616 156.389C354.752 154.705 355.165 153.054 355.838 151.504C357.451 147.46 360.043 145.743 364.398 145.743C366.161 145.743 367.935 145.743 369.698 145.812C370.47 145.812 371.426 145.651 371.772 146.504C372.118 147.356 371.104 147.644 370.781 148.186Z" fill="#E4EBEB"/>
</svg>
